<?xml version="1.0" standalone="no"?>
<!DOCTYPE svg PUBLIC "-//W3C//DTD SVG 20010904//EN"
 "http://www.w3.org/TR/2001/REC-SVG-20010904/DTD/svg10.dtd">
<svg version="1.0" xmlns="http://www.w3.org/2000/svg"
 width="700.000000pt" height="700.000000pt" viewBox="0 0 700.000000 700.000000"
 preserveAspectRatio="xMidYMid meet">
<metadata>
Created by potrace 1.11, written by Peter Selinger 2001-2013
</metadata>
<g transform="translate(0.000000,700.000000) scale(0.100000,-0.100000)"
fill="#000000" stroke="none">
<path d="M1685 5862 c-27 -10 -70 -32 -95 -50 -25 -18 -90 -63 -145 -99 -183
-121 -240 -192 -233 -287 3 -28 8 -59 12 -68 6 -13 2 -19 -21 -24 -80 -19
-123 -69 -123 -142 0 -51 21 -106 47 -121 21 -14 30 -6 -107 -88 -212 -125
-449 -335 -580 -513 -82 -112 -167 -257 -198 -339 -90 -239 -121 -406 -122
-641 0 -512 133 -907 433 -1280 526 -654 1439 -1053 2587 -1131 194 -13 705
-7 880 11 818 81 1501 320 2005 703 426 323 687 698 800 1151 48 192 58 304
52 576 -4 187 -9 253 -25 321 -78 330 -217 566 -501 850 -124 124 -363 320
-445 366 -17 9 -17 13 -3 39 53 105 9 214 -93 230 l-39 6 14 29 c49 93 -14
202 -179 315 -45 30 -112 80 -151 110 -116 90 -223 117 -295 73 -19 -12 -103
-89 -187 -172 -138 -136 -155 -149 -180 -144 -15 4 -86 20 -158 36 -380 86
-824 129 -1225 117 -406 -11 -720 -53 -1094 -147 l-118 -30 -169 166 c-94 92
-185 173 -204 181 -44 18 -78 17 -140 -4z m347 -309 c284 -282 355 -361 450
-508 108 -165 367 -719 584 -1253 31 -75 86 -202 124 -282 181 -387 240 -612
198 -751 -24 -80 -103 -147 -202 -169 -90 -20 -553 -56 -887 -70 -405 -16
-811 19 -1301 112 -153 29 -171 31 -223 19 -39 -9 -69 -24 -95 -47 l-38 -35
-66 85 c-182 233 -298 520 -313 772 l-6 101 29 6 c16 3 100 12 187 18 298 23
668 -17 1057 -116 284 -72 593 -178 823 -281 66 -30 121 -53 123 -51 2 2 -10
38 -26 80 -62 160 -82 354 -84 802 -2 395 -8 432 -102 715 -90 268 -107 287
-254 275 -103 -8 -171 6 -293 62 -99 44 -254 88 -367 103 -109 15 -165 39
-174 74 -4 15 -4 31 -1 36 4 6 37 10 75 10 70 0 131 -17 215 -60 50 -26 63
-25 148 6 44 15 81 23 96 19 13 -3 54 -35 91 -70 74 -72 127 -100 172 -90 30
7 30 7 -104 143 -74 76 -140 152 -148 171 -14 34 -11 50 25 134 11 27 -5 21
-63 -24 -63 -47 -72 -44 -99 34 -14 42 -18 47 -20 27 -13 -112 -12 -109 -46
-112 l-32 -4 28 -12 c20 -8 27 -19 27 -38 0 -25 1 -26 18 -11 28 25 66 36 86
25 22 -12 51 -78 39 -88 -4 -5 -42 -15 -83 -23 -90 -18 -105 -13 -192 63 -54
48 -108 126 -108 157 0 23 84 100 167 153 43 27 103 68 134 90 62 44 113 69
143 70 11 0 125 -106 288 -267z m3243 228 c22 -10 60 -33 85 -52 25 -19 72
-50 105 -68 88 -49 159 -106 180 -145 l19 -34 -35 -57 c-36 -61 -135 -151
-175 -161 -23 -6 -123 9 -165 24 -17 7 -17 8 1 50 21 47 47 54 100 27 28 -15
30 -14 30 4 0 13 13 27 33 38 l32 18 -42 3 c-42 3 -43 4 -44 40 -1 20 -4 48
-8 62 -7 24 -8 23 -19 -14 -6 -21 -21 -49 -33 -62 l-21 -23 -54 45 c-53 43
-74 53 -74 36 0 -5 7 -17 15 -28 8 -10 20 -36 25 -57 10 -34 8 -43 -14 -80
-13 -23 -77 -94 -140 -157 -64 -63 -116 -118 -116 -122 0 -15 86 -8 110 8 14
9 55 46 92 82 78 77 94 80 196 37 71 -29 78 -28 169 17 80 39 225 60 250 36
12 -12 13 -20 4 -37 -19 -34 -51 -49 -146 -66 -159 -28 -298 -66 -386 -105
-135 -60 -180 -71 -303 -68 l-108 3 -38 -43 c-22 -24 -47 -68 -58 -100 -10
-31 -37 -111 -60 -178 -81 -238 -86 -280 -87 -699 -2 -464 -17 -601 -86 -781
-16 -42 -28 -78 -27 -80 2 -1 37 13 78 33 366 171 935 337 1385 404 249 36
781 36 818 -1 12 -11 -31 -299 -59 -400 -33 -113 -118 -285 -204 -412 -83
-122 -159 -209 -167 -190 -12 31 -60 76 -98 93 -56 26 -112 24 -282 -10 -163
-33 -562 -85 -772 -101 -270 -20 -603 -11 -1106 30 -267 23 -347 40 -417 93
-66 50 -91 110 -91 216 1 148 52 308 203 636 49 105 116 259 150 344 76 192
265 617 375 846 178 372 257 479 624 848 180 181 283 277 296 277 11 0 38 -9
60 -19z m441 -753 c-10 -5 -56 -14 -104 -19 -48 -5 -100 -11 -117 -14 -29 -5
-29 -5 -5 6 31 14 222 47 234 41 5 -3 1 -9 -8 -14z m-269 -44 c-3 -3 -12 -4
-19 -1 -8 3 -5 6 6 6 11 1 17 -2 13 -5z m-4501 -2710 c533 -436 1294 -711
2169 -785 72 -6 254 -11 405 -10 242 0 346 6 685 36 l50 4 -42 -9 c-234 -50
-934 -62 -1272 -21 -519 62 -958 183 -1366 376 -293 137 -642 376 -805 551
-38 41 -34 38 28 -17 40 -35 107 -92 148 -125z m5294 143 c0 -2 -10 -12 -22
-23 l-23 -19 19 23 c18 21 26 27 26 19z m-1823 -873 c-3 -3 -12 -4 -19 -1 -8
3 -5 6 6 6 11 1 17 -2 13 -5z m-50 -10 c-3 -3 -12 -4 -19 -1 -8 3 -5 6 6 6 11
1 17 -2 13 -5z m-59 -11 c-10 -2 -26 -2 -35 0 -10 3 -2 5 17 5 19 0 27 -2 18
-5z"/>
</g>
</svg>
