<?xml version="1.0" encoding="utf-8"?>
<!-- Generator: Adobe Illustrator 24.1.1, SVG Export Plug-In . SVG Version: 6.00 Build 0)  -->
<svg version="1.1" id="Layer_1" xmlns="http://www.w3.org/2000/svg" xmlns:xlink="http://www.w3.org/1999/xlink" x="0px" y="0px"
	 viewBox="0 0 30 50" style="enable-background:new 0 0 30 50;" xml:space="preserve">
<style type="text/css">
	.st0{fill:#FFE600;}
</style>
<path class="st0" d="M15,50C6.7,50,0,43.3,0,35V15C0,6.7,6.7,0,15,0c8.3,0,15,6.7,15,15v20C30,43.3,23.3,50,15,50z M15,2
	C7.8,2,2,7.8,2,15v20c0,7.2,5.8,13,13,13c7.2,0,13-5.8,13-13V15C28,7.8,22.2,2,15,2z"/>
<path id="btn_scroll" class="st0" d="M15,10L15,10c1.1,0,2,0.9,2,2v4c0,1.1-0.9,2-2,2l0,0c-1.1,0-2-0.9-2-2v-4
	C13,10.9,13.9,10,15,10z"/>
</svg>
