<?xml version="1.0" encoding="utf-8"?>
<!-- Generator: Adobe Illustrator 21.0.0, SVG Export Plug-In . SVG Version: 6.00 Build 0)  -->
<svg version="1.1" id="Icon_check" xmlns="http://www.w3.org/2000/svg" xmlns:xlink="http://www.w3.org/1999/xlink" x="0px" y="0px"
	 viewBox="0 0 42 42" style="enable-background:new 0 0 42 42;" xml:space="preserve">
<style type="text/css">
	.st0{fill:#08C6A1;}
</style>
<g id="Icon_check-2" transform="translate(3.5 3.5)">
	<path id="Shape" class="st0" d="M17.5,35C7.8,35,0,27.2,0,17.5S7.8,0,17.5,0S35,7.8,35,17.5C35,27.2,27.2,35,17.5,35z M10.1,15.8
		c-1,0-1.8,0.8-1.8,1.7c0,0.5,0.2,0.9,0.5,1.2l4.9,4.9l0,0c0.2,0.2,0.6,0.4,0.9,0.5c0.1,0,0.2,0,0.3,0c0.2,0,0.4,0,0.6-0.1
		c0.2-0.1,0.4-0.2,0.6-0.4l0,0l9.9-9.9c0.7-0.7,0.7-1.8,0-2.5c-0.7-0.7-1.8-0.7-2.5,0L15,20l-3.7-3.7C11,15.9,10.5,15.8,10.1,15.8z"
		/>
</g>
</svg>
