<?xml version="1.0" encoding="utf-8"?>
<!-- Generator: Adobe Illustrator 21.0.0, SVG Export Plug-In . SVG Version: 6.00 Build 0)  -->
<svg version="1.1" id="Icon_close_circle" xmlns="http://www.w3.org/2000/svg" xmlns:xlink="http://www.w3.org/1999/xlink" x="0px"
	 y="0px" viewBox="0 0 42 42" style="enable-background:new 0 0 42 42;" xml:space="preserve">
<style type="text/css">
	.st0{fill:#F7323F;}
</style>
<g id="Icon_close_circle-2" transform="translate(3.231 3.231)">
	<path id="Shape" class="st0" d="M17.8,35.3c-9.7,0-17.5-7.8-17.5-17.5S8.1,0.3,17.8,0.3s17.5,7.8,17.5,17.5
		C35.3,27.4,27.4,35.3,17.8,35.3z M17.8,20.2L17.8,20.2l3.7,3.7c0.7,0.7,1.8,0.7,2.5,0.1s0.7-1.8,0.1-2.5c0,0,0,0-0.1-0.1l-3.7-3.7
		l3.7-3.7c0.7-0.7,0.7-1.8,0.1-2.5c-0.7-0.7-1.8-0.7-2.5-0.1c0,0,0,0-0.1,0.1l-3.7,3.7l-3.7-3.7c-0.7-0.7-1.8-0.6-2.5,0.1
		c-0.6,0.7-0.6,1.7,0,2.4l3.7,3.7l-3.7,3.7c-0.7,0.7-0.7,1.8-0.1,2.5s1.8,0.7,2.5,0.1c0,0,0,0,0.1-0.1L17.8,20.2L17.8,20.2z"/>
</g>
</svg>
