<?xml version="1.0" encoding="utf-8"?>
<!-- Generator: Adobe Illustrator 21.0.0, SVG Export Plug-In . SVG Version: 6.00 Build 0)  -->
<svg version="1.1" id="Layer_1" xmlns="http://www.w3.org/2000/svg" xmlns:xlink="http://www.w3.org/1999/xlink" x="0px" y="0px"
	 viewBox="0 0 50 50" style="enable-background:new 0 0 50 50;" xml:space="preserve">
<style type="text/css">
	.st0{fill:#FFFFFF;}
</style>
<path class="st0" d="M25,0.5C11.5,0.5,0.5,11.5,0.5,25s11,24.5,24.5,24.5s24.5-11,24.5-24.5S38.5,0.5,25,0.5z M17.9,37.5h-6v-18h6
	V37.5z M14.9,17.1L14.9,17.1c-2,0-3.3-1.4-3.3-3.1c0-1.8,1.3-3.1,3.4-3.1s3.3,1.3,3.3,3.1C18.3,15.8,17,17.1,14.9,17.1z M39.4,37.5
	h-6v-9.6c0-2.4-0.9-4.1-3-4.1c-1.6,0-2.6,1.1-3.1,2.2c-0.2,0.4-0.2,0.9-0.2,1.5v10h-6c0,0,0.1-16.3,0-18h6v2.5c0.8-1.2,2.2-3,5.4-3
	c3.9,0,6.9,2.6,6.9,8.1V37.5z"/>
</svg>
