<?xml version="1.0" encoding="utf-8"?>
<!-- Generator: Adobe Illustrator 24.1.1, SVG Export Plug-In . SVG Version: 6.00 Build 0)  -->
<svg version="1.1" id="Layer_2_1_" xmlns="http://www.w3.org/2000/svg" xmlns:xlink="http://www.w3.org/1999/xlink" x="0px" y="0px"
	 viewBox="0 0 315 80" style="enable-background:new 0 0 315 80;" xml:space="preserve">
<style type="text/css">
	.st0{fill:#2D3277;}
	.st1{fill:#AB86FF;}
	.st2{fill:#FFFFFF;}
</style>
<g>
	<path class="st0" d="M311.3,13.8c-2.1-2.6-5.2-3.9-9.5-3.9c-4.2,0-7.4,1.3-9.5,3.9s-3.1,5.7-3.1,9.2c0,3.6,1,6.7,3.1,9.3
		s5.2,3.8,9.5,3.8c4.2,0,7.4-1.3,9.5-3.8c2.1-2.6,3.1-5.7,3.1-9.3C314.5,19.5,313.4,16.4,311.3,13.8 M306.2,28.7c-1,1.3-2.5,2-4.3,2
		c-1.9,0-3.3-0.7-4.3-2s-1.5-3.2-1.5-5.7s0.5-4.4,1.5-5.7s2.5-2,4.3-2c1.9,0,3.3,0.7,4.3,2s1.5,3.2,1.5,5.7S307.2,27.4,306.2,28.7"
		/>
	<path class="st0" d="M226.1,15.5c1.6,0,2.8,0.5,3.6,1.5c0.5,0.7,0.9,1.6,1,2.5h7c-0.4-3.5-1.6-6-3.7-7.3c-2.1-1.4-4.7-2.1-8-2.1
		c-3.8,0-6.8,1.2-9,3.5c-2.2,2.4-3.3,5.6-3.3,9.8c0,3.7,1,6.8,3,9.1c2,2.4,5,3.5,9.2,3.5s7.3-1.4,9.5-4.2c1.3-1.6,2-3.5,2.2-5.5
		h-6.9c-0.1,1.2-0.5,2.3-1.2,3.2c-0.7,0.8-1.8,1.2-3.4,1.2c-2.2,0-3.8-1-4.6-3.1c-0.4-1.1-0.7-2.5-0.7-4.3c0-1.9,0.2-3.4,0.7-4.6
		C222.3,16.6,223.8,15.5,226.1,15.5"/>
	<path class="st0" d="M211.8,10.1c-14.3,0-13.4,12.6-13.4,12.6v12.8h6.5v-12c0-2,0.2-3.4,0.7-4.4c0.9-1.7,2.6-2.5,5.2-2.5
		c0.2,0,0.5,0,0.8,0s0.7,0,1.1,0.1v-6.6c-0.3,0-0.5,0-0.6,0S211.9,10.1,211.8,10.1"/>
	<path class="st0" d="M188,28.9c-0.2,0.4-0.5,0.7-0.9,1c-0.9,0.8-2.2,1-3.6,1c-1.4,0-2.5-0.2-3.5-0.8c-1.6-1-2.5-2.7-2.6-5.1h17.9
		c0.1-1.6,0-3.3-0.2-4.9c-0.3-1.8-0.9-3.6-2-5.1c-1-1.6-2.5-2.9-4.3-3.6c-1.8-0.8-3.8-1.2-5.8-1.2c-3.6,0-6.5,1.1-8.8,3.4
		s-3.4,5.5-3.4,9.8c0,4.6,1.3,7.8,3.8,9.9c2.4,2,5.5,3.1,8.7,3c4,0,7.1-1.2,9.3-3.6c1.2-1.3,1.9-2.5,2.2-3.7L188,28.9z M179.3,16.8
		c0.9-0.9,2.2-1.4,3.8-1.4c1.4,0,2.8,0.4,3.8,1.3s1.6,2.2,1.7,3.9h-11.1C177.8,19,178.4,17.7,179.3,16.8"/>
	<path class="st0" d="M168.3,35.6h-5.9V20.7c0-1.4-0.5-4.6-4.4-4.6c-2.6,0-4.5,1.9-4.5,4.6v14.9h-5.9V20.7c0-1.4-0.4-4.6-4.3-4.6
		c-2.7,0-4.5,1.9-4.5,4.6v14.9h-5.9V20.8c0-6.2,4.1-10.8,10.4-10.8c3.1,0,5.7,1.3,7.4,3.4c1.8-2.2,4.5-3.5,7.4-3.4
		c6.5,0,10.3,4.5,10.3,10.8L168.3,35.6z"/>
	<path class="st0" d="M258.3,11.7c-2.3-1.1-4.7-1.6-7.2-1.6c-4.2,0-7.1,1.1-8.8,3.3c-1.1,1.4-1.7,3.2-1.8,5.3h6.2
		c0.1-0.8,0.4-1.6,0.9-2.3c0.6-0.8,1.7-1.1,3.3-1.1c1.4,0,2.4,0.2,3.1,0.6c0.7,0.4,1.1,1.1,1.1,2.1c0,0.8-0.5,1.4-1.4,1.8
		c-0.8,0.3-1.7,0.5-2.6,0.6l-2.2,0.3c-2.5,0.3-4.4,0.8-5.7,1.6c-2.4,1.4-3.5,3.6-3.5,6.6c0,2.3,0.7,4.2,2.2,5.4
		c1.5,1.3,3.3,1.8,5.6,1.9c14.1,0.6,13.9-7.4,14.1-9.1v-9.3C261.4,14.8,260.4,12.8,258.3,11.7 M255,25.8c0,2.2-0.7,3.6-1.9,4.5
		c-1.1,0.8-2.5,1.2-3.9,1.2c-0.8,0-1.6-0.2-2.3-0.7c-0.6-0.5-0.9-1.3-0.9-2.4c-0.1-1.1,0.5-2.2,1.5-2.7c0.6-0.3,1.6-0.6,3-0.9
		l1.5-0.3c0.6-0.1,1.2-0.2,1.7-0.4c0.4-0.2,0.9-0.4,1.2-0.6L255,25.8z"/>
	<path class="st0" d="M287.4,2.3c0,0-6.5-0.7-6.5,4.5v6.9c-0.7-1.1-1.7-2.1-2.8-2.7c-1.2-0.7-2.6-1-4-1c-3.2,0-5.8,1.2-7.8,3.6
		c-1.9,2.4-2.9,5.9-2.9,10.1c0,3.6,1,6.6,2.9,9c2,2.3,5.8,3.3,9.2,3.3c11.9,0,11.8-10.2,11.8-10.2L287.4,2.3z M279.6,28.8
		c-0.9,1.4-2.3,2-4.2,2c-1.8,0-3.2-0.7-4.1-2s-1.3-3.3-1.3-5.6c0-2.1,0.4-3.9,1.3-5.3c0.9-1.4,2.3-2.1,4.1-2.1
		c1.2,0,2.3,0.4,3.3,1.2c1.5,1.3,2.3,3.6,2.3,6.6C281,25.7,280.6,27.4,279.6,28.8"/>
	<path class="st1" d="M150.2,48.4c-2.2-1.1-4.7-1.7-7.2-1.6c-4.2,0-7.1,1.1-8.8,3.3c-1.1,1.4-1.7,3.2-1.8,5.3h6.2
		c0.1-0.8,0.4-1.6,0.9-2.3c0.6-0.8,1.7-1.1,3.3-1.1c1.4,0,2.4,0.2,3.1,0.6c0.7,0.4,1.1,1.1,1.1,2.1c0,0.8-0.5,1.4-1.4,1.8
		c-0.8,0.3-1.7,0.5-2.6,0.6l-2.2,0.3c-2.5,0.3-4.4,0.8-5.7,1.6c-2.4,1.4-3.5,3.6-3.5,6.6c0,2.3,0.7,4.2,2.2,5.4
		c1.5,1.3,3.3,1.8,5.6,1.9c14.1,0.6,13.9-7.4,14.1-9.1v-9.3C153.3,51.5,152.3,49.5,150.2,48.4 M146.9,62.4c0,2.2-0.7,3.6-1.8,4.5
		c-1.1,0.8-2.5,1.2-3.9,1.2c-0.8,0-1.6-0.2-2.3-0.7c-0.6-0.5-0.9-1.3-0.9-2.4c-0.1-1.1,0.5-2.2,1.5-2.7c0.6-0.3,1.6-0.6,3-0.9
		l1.5-0.3c0.6-0.1,1.2-0.2,1.7-0.4c0.4-0.2,0.9-0.4,1.2-0.6V62.4z"/>
	<path class="st1" d="M179.3,39c0,0-6.5-0.7-6.5,4.5v6.9c-0.7-1.1-1.7-2.1-2.8-2.7c-1.2-0.7-2.6-1-4-1c-3.2,0-5.8,1.2-7.8,3.6
		c-1.9,2.4-2.9,5.9-2.9,10.1c0,3.6,1,6.6,2.9,9c2,2.3,5.8,3.3,9.2,3.3c11.9,0,11.8-10.2,11.8-10.2L179.3,39z M171.5,65.4
		c-0.9,1.4-2.3,2-4.2,2c-1.8,0-3.2-0.7-4.1-2c-0.9-1.4-1.3-3.4-1.3-5.6c0-2.1,0.4-3.9,1.3-5.3c0.9-1.4,2.3-2.1,4.1-2.1
		c1.2,0,2.3,0.4,3.3,1.2c1.5,1.3,2.3,3.6,2.3,6.6C173,62.3,172.5,64.1,171.5,65.4"/>
	<path class="st1" d="M187.3,64.2c0.1,1.1,0.4,1.9,0.9,2.4c0.8,0.8,2.3,1.3,4.4,1.3c1.3,0,2.3-0.2,3-0.6s1.1-0.9,1.1-1.7
		c0-0.7-0.3-1.3-0.9-1.6c-0.6-0.4-2.8-1-6.7-1.9c-2.8-0.7-4.7-1.5-5.9-2.6c-1.1-1-1.7-2.5-1.7-4.4c0-2.3,0.9-4.2,2.7-5.8
		s4.3-2.4,7.5-2.4c3.1,0,5.6,0.6,7.5,1.8s3,3.3,3.3,6.3h-6.4c0-0.7-0.3-1.4-0.7-1.9c-0.7-0.9-1.9-1.3-3.6-1.3c-1.4,0-2.4,0.2-3,0.6
		c-0.6,0.4-0.9,0.9-0.9,1.5c0,0.7,0.3,1.3,0.9,1.6c0.6,0.3,2.9,0.9,6.7,1.8c2.5,0.6,4.5,1.5,5.7,2.7s1.9,2.9,1.9,4.6
		c0.1,2.3-0.9,4.5-2.7,5.9c-1.8,1.5-4.6,2.3-8.4,2.3c-3.8,0-6.7-0.8-8.5-2.4c-1.8-1.5-2.8-3.8-2.7-6.2
		C180.8,64.2,187.3,64.2,187.3,64.2z"/>
	<g>
		<path class="st1" d="M102,56.3c-0.7-0.3-1.1-0.2-2.7,0.2c-1.1,0.3-2.7,0.6-5.3,1c-9.5,1.3-13.6,1.6-30,0.2
			c-3.1-0.3-5.3-1.4-6.4-3.3c-0.1-0.2-0.2-0.4-0.3-0.6c-0.1,0.2-0.2,0.4-0.3,0.6c-1.1,1.9-3.2,3-6.4,3.3c-16.4,1.5-20.5,1.1-30-0.2
			c-2.5-0.3-4.1-0.7-5.3-1c-1.5-0.4-1.9-0.4-2.7-0.2c-0.3,0.1-0.5,0.3-0.8,0.9c2.5,2.6,5.6,5,9.1,7.1c1.2,0.7,2.4,1.4,3.6,2
			c9.1,4.6,20.6,7.3,33.1,7.3c15.4,0,29.3-4.2,39.1-10.8c0.5-0.3,1-0.7,1.5-1c0.8-0.6,1.7-1.3,2.4-1.9s1.5-1.3,2.2-2
			C102.6,56.8,102.5,56.5,102,56.3z"/>
		<path class="st1" d="M45.6,19.4l0.3,0.6c1.6,3.5,4.3,9.3,6.9,15.7c0.4,1,0.9,2.1,1.5,3.3c1.2,2.6,2.5,5.4,3.2,8.2
			c0.7-2.7,2-5.6,3.2-8.2c0.6-1.2,1.1-2.4,1.5-3.3c2.6-6.4,5.3-12.2,6.9-15.7l0.3-0.6c2-4.2,4-7.4,6.5-10c0.5-0.6,1.1-1.2,1.8-1.9
			C71.4,6,64.8,5.2,57.8,5.2c-7.2,0-14,0.9-20.3,2.5c0.6,0.6,1.1,1.2,1.6,1.7C41.6,12,43.6,15.2,45.6,19.4z"/>
		<path class="st1" d="M37.8,43.1c-0.7-3.5-0.9-8.9-0.6-12.9c0.3-4.6-1.4-9.1-2.4-11.5l-0.2-0.5c-0.3-0.8-0.5-0.9-0.5-0.9
			c-0.1,0-0.3,0-0.5,0.1c-0.3,0.1-0.7,0.1-1.2,0.1c-2.2,0.1-4.8-1.2-5.6-1.6c-0.6-0.3-1.2-0.5-1.9-0.6c-0.5-0.1-1.1-0.3-1.7-0.5
			c-0.2-0.1-0.7-0.1-1.2-0.2c-0.4,0-0.8-0.1-1.2-0.2C14.8,18.3,10,22.9,7.1,28.1c-0.2,0.4-0.4,0.8-0.6,1.2c0,0.1,0,0.1-0.1,0.2
			c-0.2,0.4-0.4,0.8-0.5,1.2c0,0,0,0.1-0.1,0.1c-0.2,0.4-0.3,0.8-0.5,1.2c0,0.1-0.1,0.2-0.1,0.2C5.2,32.6,5.1,33,5,33.4
			c0,0.1,0,0.1-0.1,0.2c-0.1,0.4-0.2,0.8-0.3,1.2c0,0,0,0.1,0,0.1c-0.1,0.4-0.2,0.9-0.2,1.3c0,0.1,0,0.2,0,0.2c0,0.3-0.1,0.7-0.1,1
			C17.5,35.4,32.6,41,37.8,43.1z"/>
		<path class="st1" d="M91.5,14.9c-0.6,0.2-1.1,0.4-1.7,0.5c-0.6,0.2-1.3,0.3-1.9,0.6c-0.8,0.4-3.4,1.7-5.6,1.6
			c-0.5,0-0.9-0.1-1.2-0.1c-0.2,0-0.5-0.1-0.6-0.1h0c0,0-0.2,0.1-0.5,0.9L80,18.8c-1,2.4-2.7,6.9-2.4,11.5c0.3,4,0.1,9.5-0.6,12.9
			c2.2-0.9,6-2.3,10.8-3.6c11.1-3,18.8-3,23.7-2.2c0,0,0-0.1,0-0.1c0-0.1,0-0.2,0-0.3c0-0.3-0.1-0.7-0.1-1c0,0,0,0,0,0
			c-0.1-0.3-0.1-0.7-0.2-1c0-0.1,0-0.2-0.1-0.3c-0.1-0.3-0.1-0.5-0.2-0.8c0-0.1,0-0.2-0.1-0.3c-0.1-0.3-0.2-0.7-0.3-1c0,0,0,0,0,0
			c-0.1-0.3-0.2-0.6-0.3-1c0-0.1-0.1-0.2-0.1-0.3c-0.1-0.2-0.2-0.5-0.3-0.7c0-0.1-0.1-0.2-0.1-0.3c-0.1-0.3-0.3-0.7-0.4-1
			c0,0,0,0,0,0c-0.2-0.3-0.3-0.6-0.5-0.9c-0.1-0.1-0.1-0.2-0.2-0.3c-0.1-0.2-0.3-0.5-0.4-0.7c-0.1-0.1-0.1-0.2-0.2-0.3
			c-0.2-0.3-0.4-0.6-0.6-0.9c0,0,0,0,0-0.1c-0.2-0.3-0.4-0.6-0.6-0.8c-0.1-0.1-0.1-0.2-0.2-0.3c-0.2-0.2-0.3-0.4-0.5-0.7
			c-0.1-0.1-0.1-0.2-0.2-0.3c-0.2-0.3-0.5-0.6-0.7-0.9c0,0,0-0.1-0.1-0.1c-0.2-0.3-0.5-0.5-0.7-0.8c-2.6-2.9-5.9-5.5-9.7-7.8
			c-0.7,0.2-1.3,0.3-1.9,0.3C92.2,14.8,91.7,14.8,91.5,14.9z"/>
		<g>
			<path class="st2" d="M50.9,36.4c-2.5-6.4-5.2-12.1-6.8-15.6l-0.3-0.6c-1.9-4-3.8-7.1-6.1-9.5C37,10,36.2,9.1,35.4,8.3
				c-0.6-0.6-1.1-1.1-1.7-1.7c-2-2-3.9-3.9-4.7-4.5c-0.5-0.4-1.8,0.2-3.3,1.5c-0.2,0.2-0.6,0.4-1.1,0.7c-1,0.6-3.1,1.9-3.3,2.8
				c0,0.1,0,0.3,0.1,0.5l0.1,0.1C21.8,8,22.2,8.6,22.5,9c0.1,0.1,0.1,0.1,0.2,0.2c0,0,0,0,0.1,0.1c0.1,0.1,0.2,0.2,0.3,0.3
				c0.3,0.3,0.7,0.6,1.1,0.9c0.5,0.3,0.9,0.6,1.1,0.5c1-0.2,1.7-0.4,2.7-0.6c-0.2-0.7-0.4-1.1-0.6-1.4c-0.5-0.4-1.1,0-1.9,0.5
				c0-0.3,0.1-0.6,0.1-0.8c-0.4-0.1-0.6-0.3-1.1-0.5c0.6-0.1,0.9-0.1,1.3-0.1c0.1-0.8,0.2-1.6,0.2-2.4c0.3,0.5,0.3,1,0.5,1.4
				c0.2,0.4,0.5,0.6,0.8,1c0.2-0.2,0.5-0.5,0.7-0.7c0.4-0.3,0.8-0.6,1.2-0.9c0.1,0.1,0.1,0.2,0.2,0.3c-0.5,0.8-0.8,1.3-0.9,1.8
				c0,0.5,0.3,1,1,1.9c0,0,0,0,0.1,0.1c1.1,1.3,2.5,2.5,3.7,3.7c-0.9,0.5-1.9,0.2-3.2-1.1c-1.5-1.7-1.5-1.7-3.6-0.9
				c-0.1,0-0.3,0.1-0.4,0.2c-0.4,0.1-0.6,0.2-0.9,0.1c-0.4-0.1-0.8-0.4-1.4-0.7c-0.3-0.2-0.7-0.3-1-0.4c-0.2-0.1-0.4-0.1-0.6-0.2
				c-0.1,0-0.2,0-0.3,0c-1.2-0.2-1.9-0.2-2.2,0c-0.1,0-0.1,0.2-0.1,0.3c0,0.5,0.3,0.8,1.1,1.1c0.5,0.1,1.1,0.3,2,0.4
				c0.5,0.1,0.9,0.1,1.3,0.2c0.1,0,0.3,0.1,0.4,0.1c0.4,0.2,0.9,0.3,1.4,0.4c0.7,0.2,1.5,0.4,2.3,0.8c1.3,0.7,3.2,1.4,4.6,1.4
				c0.3,0,0.6-0.1,0.9-0.1c1.2-0.2,2.3-0.2,3.2,2l0.2,0.5c0.9,2.4,2.9,7.3,2.5,12.3c-0.4,5.1,0.1,11.8,1,14.1l0.9,2.3l-2.2-1
				c-0.2-0.1-19-8.8-34.5-6.2c0,0.5,0,1.3,0,2.2c0,0,0,0,0,0c0.5,5,2.8,9.7,6.3,13.9c0,0,0,0,0,0c0.3-0.5,0.8-0.9,1.5-1.2
				c1.3-0.5,2.2-0.3,3.8,0.1c1.1,0.3,2.6,0.6,5.1,0.9c9.3,1.2,13.4,1.6,29.6,0.2c2.5-0.2,4.1-1,4.8-2.3c1.8-3-0.9-8.8-3-13.5
				C51.9,38.6,51.3,37.5,50.9,36.4z"/>
			<path class="st2" d="M111.5,39.3c-15.5-2.5-35.4,6.3-35.6,6.4l-2.2,1l0.9-2.2c0.9-2.3,1.4-9,1-14.1c-0.4-5,1.6-10,2.5-12.3
				l0.2-0.5c0.9-2.3,2-2.3,3.2-2c0.3,0.1,0.6,0.1,0.9,0.1c1.4,0,3.3-0.7,4.6-1.4c0.8-0.4,1.6-0.6,2.3-0.8c0.5-0.1,0.9-0.2,1.4-0.4
				c0.3-0.1,0.6-0.2,1-0.3c0.2,0,0.4-0.1,0.6-0.1c1.2-0.2,2-0.3,2.5-0.6c0.4-0.2,0.5-0.5,0.5-0.9c0-0.2,0-0.3-0.1-0.3
				c-0.3-0.2-1-0.2-2.2,0c-0.1,0-0.2,0-0.3,0c0,0,0,0-0.1,0c-0.5,0.1-1.1,0.3-1.6,0.6c-0.4,0.2-0.6,0.4-0.9,0.5
				c-0.4,0.2-0.8,0.3-1.4,0.1c-0.1-0.1-0.3-0.1-0.4-0.2c-2.1-0.8-2.1-0.8-3.6,0.9c-1.2,1.4-2.2,1.7-3.2,1.1c1.2-1.2,2.5-2.3,3.7-3.7
				c0.1-0.1,0.2-0.2,0.3-0.3c0.7-0.8,0.9-1.3,0.7-2c-0.1-0.4-0.4-0.8-0.8-1.4c0.1-0.1,0.1-0.2,0.2-0.3c0.4,0.3,0.8,0.6,1.2,0.9
				c0.3,0.2,0.5,0.4,0.7,0.7c0.3-0.3,0.6-0.6,0.8-1c0.2-0.4,0.2-0.9,0.5-1.4c0.1,0.8,0.1,1.5,0.2,2.4c0.3,0,0.7,0.1,1.3,0.1
				c-0.5,0.2-0.7,0.3-1.1,0.5c0,0.2,0.1,0.5,0.1,0.7c0,0,0,0.1,0,0.1c-0.1-0.1-0.2-0.2-0.4-0.2c-0.5-0.3-0.8-0.5-1.2-0.5
				c-0.4,0-0.8,0.4-1,1.5c1,0.3,1.7,0.4,2.7,0.6c0.3,0.1,0.9-0.3,1.4-0.8c0.2-0.2,0.5-0.4,0.7-0.6c0.1-0.1,0.2-0.2,0.3-0.3
				c0,0,0,0,0.1-0.1C92.2,9.1,92.2,9,92.3,9C92.6,8.6,93,8,93.2,7.7l0.1-0.1c0.2-0.2,0.2-0.3,0.1-0.5c-0.2-1-2.3-2.2-3.3-2.8
				c-0.5-0.3-0.9-0.5-1.1-0.7c-1.5-1.3-2.8-1.9-3.3-1.5c-0.7,0.6-2.5,2.3-4.5,4.3c-0.6,0.6-1.1,1.1-1.7,1.7
				c-0.9,0.9-1.8,1.8-2.5,2.6c-2.3,2.5-4.2,5.5-6.1,9.5l-0.3,0.6c-1.6,3.4-4.3,9.2-6.8,15.6c-0.4,1-0.9,2.2-1.5,3.4
				c-2.1,4.6-4.7,10.4-3,13.5c0.8,1.3,2.4,2.1,4.8,2.3c16.2,1.4,20.3,1.1,29.6-0.2c2.5-0.3,4-0.7,5.1-0.9c0.9-0.2,1.6-0.4,2.3-0.4
				c0.5,0,1,0.1,1.5,0.3c0.9,0.3,1.4,1,1.8,1.8c0.3-0.4,0.7-0.8,1-1.2c0.1-0.1,0.2-0.2,0.3-0.3c1.3-1.7,2.4-3.4,3.3-5.2
				c0,0,0-0.1,0.1-0.1c0.1-0.3,0.3-0.6,0.4-0.9c0.4-0.9,0.7-1.9,1-2.8c0,0,0-0.1,0-0.1c0,0,0,0,0,0c0.4-2.1,0.7-4.2,0.9-5.5
				C111.5,39.8,111.5,39.6,111.5,39.3C111.5,39.4,111.5,39.3,111.5,39.3z"/>
		</g>
		<path class="st0" d="M113.6,38.5l0.1-0.7l-0.1,0c0-0.2,0-0.3,0-0.5c0-0.1,0-0.3,0-0.4c0-0.2-0.1-0.5-0.1-0.7c0-0.1,0-0.2,0-0.3
			c-0.1-0.3-0.1-0.7-0.2-1c0,0,0,0,0,0c-0.1-0.3-0.1-0.7-0.2-1c0-0.1-0.1-0.2-0.1-0.3c-0.1-0.2-0.1-0.5-0.2-0.7
			c0-0.1-0.1-0.2-0.1-0.4c-0.1-0.2-0.1-0.5-0.2-0.7c0-0.1-0.1-0.2-0.1-0.3c-0.1-0.3-0.2-0.7-0.4-1c0,0,0,0,0,0
			c-0.1-0.3-0.3-0.6-0.4-1c0-0.1-0.1-0.2-0.1-0.3c-0.1-0.2-0.2-0.4-0.3-0.7c-0.1-0.1-0.1-0.2-0.2-0.3c-0.1-0.2-0.2-0.4-0.3-0.7
			c-0.1-0.1-0.1-0.2-0.2-0.3c-0.2-0.3-0.4-0.6-0.5-0.9c0,0,0,0,0,0c-0.2-0.3-0.4-0.6-0.6-0.9c-0.1-0.1-0.1-0.2-0.2-0.3
			c-0.1-0.2-0.3-0.4-0.4-0.6c-0.1-0.1-0.2-0.2-0.2-0.3c-0.2-0.2-0.3-0.4-0.5-0.6c-0.1-0.1-0.1-0.2-0.2-0.3c-0.2-0.3-0.5-0.6-0.7-0.9
			c0,0,0,0,0,0h0c-2.7-3.3-6.2-6.2-10.3-8.8c0.4-0.5,0.7-1.1,0.7-2c0-1-0.4-1.6-0.8-1.9c-0.5-0.4-1.1-0.6-1.8-0.6
			c0-0.1,0.1-0.1,0.1-0.2c0.4-0.6,0.6-1.3,0.4-2c-0.4-1.8-2.6-3.2-4.2-4.1c-0.3-0.2-0.7-0.4-0.8-0.5c-3.1-2.6-4.9-2.3-5.8-1.5
			c-0.9,0.7-3.2,2.9-5.4,5.2C72.6,4,65.4,3,57.8,3c-7.8,0-15.2,1-22,2.9c-2.3-2.3-4.6-4.6-5.6-5.4c-1-0.8-2.7-1.1-5.8,1.5
			c-0.1,0.1-0.5,0.3-0.8,0.5c-1.5,0.9-3.8,2.3-4.2,4.1c-0.1,0.7,0,1.4,0.4,2c0,0,0.1,0.1,0.1,0.2c-0.6,0-1.3,0.2-1.8,0.6
			c-0.4,0.3-0.8,0.9-0.8,1.9c0,1.1,0.4,1.8,1.1,2.3c-6.2,4-11,9-13.8,14.6l0,0c0,0,0,0.1-0.1,0.1c-0.2,0.4-0.4,0.8-0.6,1.2
			c0,0,0,0.1,0,0.1c-0.2,0.4-0.3,0.8-0.5,1.1c0,0.1-0.1,0.2-0.1,0.3c-0.1,0.4-0.3,0.8-0.4,1.2c0,0.1,0,0.1-0.1,0.2
			c-0.1,0.4-0.2,0.7-0.3,1.1c0,0.1,0,0.2-0.1,0.2c-0.1,0.4-0.2,0.8-0.3,1.2c0,0.1,0,0.2,0,0.3c-0.1,0.4-0.1,0.8-0.2,1.1
			c0,0.1,0,0.1,0,0.2c-0.1,0.4-0.1,0.8-0.1,1.3c0,0.1,0,0.2,0,0.3c0,0.4,0,0.9,0,1.3c0,0,0,0,0,0c0,0.3,0,0.9,0,1.4
			c0,0.4,0,0.7,0,0.8C2,62.8,23.8,80,57.8,80c17.5,0,31.7-4.5,41.4-11.8c0.2-0.1,0.3-0.2,0.5-0.4c0.6-0.5,1.2-0.9,1.8-1.4
			c0.4-0.3,0.7-0.6,1.1-0.9c0.3-0.3,0.7-0.6,1-0.9c6.5-6.4,10.1-14.4,10.1-23v-2.1c0,0,0,0,0,0C113.7,39.1,113.7,38.8,113.6,38.5z
			 M85.8,2.1c0.5-0.4,1.8,0.2,3.3,1.5c0.2,0.2,0.6,0.4,1.1,0.7c1,0.6,3.1,1.9,3.3,2.8c0,0.1,0,0.3-0.1,0.5l-0.1,0.1
			C93,8,92.6,8.6,92.3,9c-0.1,0.1-0.1,0.1-0.2,0.2c0,0,0,0-0.1,0.1c-0.1,0.1-0.2,0.2-0.3,0.3c-0.2,0.2-0.5,0.4-0.7,0.6
			c-0.6,0.5-1.1,0.9-1.4,0.8c-1-0.2-1.7-0.4-2.7-0.6c0.3-1.1,0.6-1.5,1-1.5c0.3,0,0.7,0.2,1.2,0.5c0.1,0.1,0.2,0.2,0.4,0.2
			c0,0,0-0.1,0-0.1c0-0.3-0.1-0.5-0.1-0.7c0.4-0.1,0.6-0.3,1.1-0.5c-0.6-0.1-0.9-0.1-1.3-0.1c-0.1-0.8-0.2-1.6-0.2-2.4
			c-0.3,0.5-0.3,1-0.5,1.4c-0.2,0.4-0.5,0.6-0.8,1c-0.2-0.2-0.5-0.5-0.7-0.7c-0.4-0.3-0.8-0.6-1.2-0.9c-0.1,0.1-0.1,0.2-0.2,0.3
			c0.4,0.6,0.7,1,0.8,1.4c0.2,0.6,0,1.1-0.7,2c-0.1,0.1-0.2,0.2-0.3,0.3c-1.1,1.3-2.5,2.5-3.7,3.7c0.9,0.5,1.9,0.2,3.2-1.1
			c1.5-1.7,1.5-1.7,3.6-0.9c0.1,0,0.3,0.1,0.4,0.2c0.6,0.2,1,0.1,1.4-0.1c0.3-0.1,0.6-0.3,0.9-0.5c0.5-0.3,1.1-0.4,1.6-0.6
			c0,0,0,0,0.1,0c0.1,0,0.2,0,0.3,0c1.2-0.2,1.9-0.2,2.2,0c0.1,0,0.1,0.2,0.1,0.3c0,0.4-0.2,0.7-0.5,0.9c-0.5,0.3-1.2,0.4-2.5,0.6
			c-0.2,0-0.4,0.1-0.6,0.1c-0.4,0.1-0.8,0.1-1,0.3c-0.4,0.2-0.9,0.3-1.4,0.4c-0.7,0.2-1.5,0.4-2.3,0.8c-1.3,0.7-3.2,1.4-4.6,1.4
			c-0.3,0-0.6-0.1-0.9-0.1c-1.2-0.2-2.3-0.2-3.2,2l-0.2,0.5c-0.9,2.4-2.9,7.3-2.5,12.3c0.4,5.1-0.1,11.8-1,14.1l-0.9,2.2l2.2-1
			c0.2-0.1,20.1-8.9,35.6-6.4c0,0,0,0,0,0.1c0,0.2,0,0.4,0,0.7c-0.2,1.4-0.4,3.4-0.9,5.5c0,0,0,0,0,0c0,0,0,0.1,0,0.1
			c-0.3,1-0.6,1.9-1,2.8c-0.1,0.3-0.3,0.6-0.4,0.9c0,0,0,0.1-0.1,0.1c-0.9,1.8-2,3.5-3.3,5.2c-0.1,0.1-0.2,0.2-0.3,0.3
			c-0.3,0.4-0.7,0.8-1,1.2c-0.4-0.8-0.9-1.4-1.8-1.8c-0.6-0.2-1-0.3-1.5-0.3c-0.7,0-1.4,0.2-2.3,0.4c-1.1,0.3-2.6,0.6-5.1,0.9
			c-9.3,1.2-13.4,1.6-29.6,0.2c-2.5-0.2-4.1-1-4.8-2.3c-1.8-3,0.9-8.8,3-13.5c0.6-1.2,1.1-2.4,1.5-3.4c2.5-6.4,5.2-12.1,6.8-15.6
			l0.3-0.6c1.9-4,3.8-7,6.1-9.5c0.7-0.8,1.6-1.7,2.5-2.6c0.6-0.6,1.1-1.1,1.7-1.7C83.2,4.4,85.1,2.7,85.8,2.1z M104.3,22.2
			c0.2,0.3,0.5,0.5,0.7,0.8c0,0,0,0.1,0.1,0.1c0.2,0.3,0.5,0.6,0.7,0.9c0.1,0.1,0.1,0.2,0.2,0.3c0.2,0.2,0.3,0.4,0.5,0.7
			c0.1,0.1,0.1,0.2,0.2,0.3c0.2,0.3,0.4,0.6,0.6,0.8c0,0,0,0,0,0.1c0.2,0.3,0.4,0.6,0.6,0.9c0.1,0.1,0.1,0.2,0.2,0.3
			c0.1,0.2,0.3,0.5,0.4,0.7c0.1,0.1,0.1,0.2,0.2,0.3c0.2,0.3,0.3,0.6,0.5,0.9c0,0,0,0,0,0c0.2,0.3,0.3,0.6,0.4,1
			c0,0.1,0.1,0.2,0.1,0.3c0.1,0.2,0.2,0.5,0.3,0.7c0,0.1,0.1,0.2,0.1,0.3c0.1,0.3,0.2,0.6,0.3,1c0,0,0,0,0,0c0.1,0.3,0.2,0.7,0.3,1
			c0,0.1,0.1,0.2,0.1,0.3c0.1,0.3,0.1,0.5,0.2,0.8c0,0.1,0,0.2,0.1,0.3c0.1,0.3,0.1,0.7,0.2,1c0,0,0,0,0,0c0.1,0.3,0.1,0.7,0.1,1
			c0,0.1,0,0.2,0,0.3c0,0,0,0.1,0,0.1c-4.9-0.7-12.6-0.8-23.7,2.2c-4.8,1.3-8.6,2.7-10.8,3.6c0.7-3.5,0.9-8.9,0.6-12.9
			c-0.3-4.6,1.4-9.1,2.4-11.5l0.2-0.5c0.3-0.7,0.5-0.9,0.5-0.9h0c0.1,0,0.4,0,0.6,0.1c0.3,0.1,0.7,0.1,1.2,0.1
			c2.2,0.1,4.8-1.2,5.6-1.6c0.6-0.3,1.2-0.5,1.9-0.6c0.5-0.1,1.1-0.3,1.7-0.5c0.2-0.1,0.7-0.1,1.2-0.2c0.5-0.1,1.2-0.2,1.9-0.3
			C98.3,16.7,101.6,19.3,104.3,22.2z M57.8,5.2c6.9,0,13.5,0.8,19.6,2.3c-0.6,0.7-1.2,1.3-1.8,1.9c-2.4,2.6-4.5,5.8-6.5,10L68.9,20
			c-1.6,3.5-4.3,9.3-6.9,15.7c-0.4,1-0.9,2.1-1.5,3.3c-1.2,2.6-2.5,5.4-3.2,8.2c-0.7-2.7-2-5.6-3.2-8.2c-0.6-1.2-1.1-2.4-1.5-3.3
			c-2.6-6.4-5.3-12.2-6.9-15.7l-0.3-0.6c-2-4.2-4-7.4-6.5-10c-0.5-0.5-1-1.1-1.6-1.7C43.8,6.1,50.7,5.2,57.8,5.2z M19.4,11.3
			c0-0.2,0-0.3,0.1-0.3c0.3-0.2,1-0.2,2.2,0c0.1,0,0.2,0,0.3,0c0.2,0,0.4,0.1,0.6,0.2c0.3,0.1,0.7,0.2,1,0.4c0.6,0.3,1,0.6,1.4,0.7
			c0.3,0.1,0.6,0,0.9-0.1c0.1-0.1,0.3-0.1,0.4-0.2c2.1-0.8,2.1-0.8,3.6,0.9c1.2,1.4,2.2,1.7,3.2,1.1c-1.2-1.2-2.5-2.3-3.7-3.7
			c0,0,0,0-0.1-0.1c-0.7-0.8-1-1.3-1-1.9c0-0.5,0.3-1,0.9-1.8c-0.1-0.1-0.1-0.2-0.2-0.3c-0.4,0.3-0.8,0.6-1.2,0.9
			c-0.3,0.2-0.5,0.4-0.7,0.7c-0.3-0.3-0.6-0.6-0.8-1c-0.2-0.4-0.2-0.9-0.5-1.4c-0.1,0.8-0.1,1.5-0.2,2.4c-0.3,0-0.7,0.1-1.3,0.1
			c0.5,0.2,0.7,0.3,1.1,0.5c0,0.2-0.1,0.5-0.1,0.8c0.9-0.6,1.5-1,1.9-0.5c0.2,0.2,0.4,0.6,0.6,1.4c-1,0.3-1.7,0.4-2.7,0.6
			c-0.2,0.1-0.7-0.2-1.1-0.5c-0.3-0.3-0.7-0.6-1.1-0.9c-0.1-0.1-0.2-0.2-0.3-0.3c0,0,0,0-0.1-0.1C22.6,9.1,22.6,9,22.5,9
			c-0.3-0.4-0.7-0.9-0.9-1.3l-0.1-0.1c-0.2-0.2-0.2-0.3-0.1-0.5c0.2-1,2.3-2.2,3.3-2.8c0.5-0.3,0.9-0.5,1.1-0.7
			c1.5-1.3,2.8-1.9,3.3-1.5c0.7,0.6,2.6,2.4,4.7,4.5c0.6,0.6,1.1,1.1,1.7,1.7c0.8,0.8,1.6,1.7,2.3,2.4c2.3,2.5,4.2,5.5,6.1,9.5
			l0.3,0.6c1.6,3.4,4.3,9.2,6.8,15.6c0.4,1,0.9,2.2,1.5,3.4c2.1,4.6,4.7,10.4,3,13.5c-0.8,1.3-2.4,2.1-4.8,2.3
			c-16.2,1.4-20.3,1.1-29.6-0.2c-2.5-0.3-4-0.7-5.1-0.9c-1.6-0.4-2.5-0.6-3.8-0.1c-0.7,0.3-1.1,0.7-1.5,1.2c0,0,0,0,0,0
			c-3.6-4.2-5.8-8.9-6.3-13.9c0,0,0,0,0,0c0-0.9,0-1.7,0-2.2c15.5-2.6,34.3,6.1,34.5,6.2l2.2,1l-0.9-2.3c-0.9-2.3-1.4-9-1-14.1
			c0.4-5-1.6-10-2.5-12.3l-0.2-0.5c-0.9-2.3-2-2.3-3.2-2c-0.3,0.1-0.6,0.1-0.9,0.1c-1.4,0-3.3-0.7-4.6-1.4c-0.8-0.4-1.6-0.6-2.3-0.8
			c-0.5-0.1-0.9-0.2-1.4-0.4C24,13.1,23.8,13,23.7,13c-0.4-0.1-0.8-0.2-1.3-0.2c-0.9-0.1-1.5-0.2-2-0.4
			C19.7,12.2,19.4,11.8,19.4,11.3z M4.4,36.3c0.1-0.4,0.1-0.9,0.2-1.3c0,0,0-0.1,0-0.1c0.1-0.4,0.2-0.8,0.3-1.2c0-0.1,0-0.1,0.1-0.2
			c0.1-0.4,0.2-0.8,0.4-1.2c0-0.1,0.1-0.2,0.1-0.2c0.1-0.4,0.3-0.8,0.5-1.2c0,0,0-0.1,0.1-0.1c0.2-0.4,0.3-0.8,0.5-1.2
			c0-0.1,0-0.1,0.1-0.2c0.2-0.4,0.4-0.8,0.6-1.2c2.9-5.2,7.6-9.8,13.8-13.6c0.4,0.1,0.9,0.1,1.2,0.2c0.5,0.1,1,0.1,1.2,0.2
			c0.6,0.2,1.1,0.4,1.7,0.5c0.6,0.2,1.3,0.3,1.9,0.6c0.8,0.4,3.4,1.7,5.6,1.6c0.5,0,0.9-0.1,1.2-0.1c0.2,0,0.5-0.1,0.5-0.1
			c0,0,0.2,0.1,0.5,0.9l0.2,0.5c1,2.4,2.7,6.9,2.4,11.5c-0.3,4-0.1,9.4,0.6,12.9c-5.2-2.2-20.3-7.7-33.6-5.6c0-0.3,0.1-0.7,0.1-1
			C4.4,36.4,4.4,36.3,4.4,36.3z M100.9,59.8c-0.8,0.7-1.6,1.3-2.4,1.9c-0.5,0.3-1,0.7-1.5,1c-9.8,6.6-23.7,10.8-39.1,10.8
			c-12.5,0-24-2.7-33.1-7.3c-1.3-0.6-2.5-1.3-3.6-2c-3.5-2.1-6.6-4.5-9.1-7.1c0.3-0.5,0.4-0.7,0.8-0.9c0.7-0.3,1.1-0.2,2.7,0.2
			c1.1,0.3,2.7,0.6,5.3,1c9.5,1.3,13.6,1.6,30,0.2c3.1-0.3,5.3-1.4,6.4-3.3c0.1-0.2,0.2-0.4,0.3-0.6c0.1,0.2,0.2,0.4,0.3,0.6
			c1.1,1.9,3.2,3,6.4,3.3c16.4,1.5,20.5,1.1,30-0.2c2.5-0.3,4.1-0.7,5.3-1c1.5-0.4,1.9-0.4,2.7-0.2c0.4,0.2,0.6,0.4,1.1,1.5
			c-0.4,0.3-0.7,0.7-1.1,1C101.6,59.2,101.3,59.5,100.9,59.8z"/>
	</g>
</g>
</svg>
