<?xml version="1.0" encoding="utf-8"?>
<!-- Generator: Adobe Illustrator 21.0.0, SVG Export Plug-In . SVG Version: 6.00 Build 0)  -->
<svg version="1.1" id="Layer_2" xmlns="http://www.w3.org/2000/svg" xmlns:xlink="http://www.w3.org/1999/xlink" x="0px" y="0px"
	 viewBox="0 0 640 80" style="enable-background:new 0 0 640 80;" xml:space="preserve">
<style type="text/css">
	.st0{fill:#283277;}
	.st1{fill:#FFD100;}
	.st2{fill:#FFFFFF;}
</style>
<g>
	<rect x="326.5" y="3.2" class="st0" width="0.9" height="76.8"/>
	<path class="st0" d="M352.4,24.7H366c7,0,10.9,4.9,10.9,10.6s-4,10.6-10.9,10.6h-10.5V61h-3.1V24.7z M365.7,27.5h-10.2v15.6h10.2
		c4.8,0,8-3.2,8-7.8S370.5,27.5,365.7,27.5z"/>
	<path class="st0" d="M400.5,57.1c-2.2,2.4-5.7,4.5-9.5,4.5c-5.4,0-8.3-2.5-8.3-8.4V34.7h2.8v17.8c0,5.1,2.6,6.5,6.4,6.5
		c3.4,0,6.8-2,8.5-4.3v-20h2.8V61h-2.8V57.1z"/>
	<path class="st0" d="M411.6,24.7h2.8V39c2.1-3,5.4-4.9,9.1-4.9c7,0,11.7,5.5,11.7,13.8c0,8.4-4.8,13.8-11.7,13.8
		c-3.9,0-7.3-2.1-9.1-4.8V61h-2.8V24.7z M423.1,59.1c5.9,0,9.2-4.8,9.2-11.2s-3.3-11.3-9.2-11.3c-3.6,0-7.1,2.3-8.6,4.8v13
		C415.9,56.9,419.4,59.1,423.1,59.1z"/>
	<path class="st0" d="M442.2,24.7h2.8V61h-2.8V24.7z"/>
	<path class="st0" d="M452.5,28.4c0-1.2,1-2.1,2.2-2.1c1.2,0,2.2,0.9,2.2,2.1c0,1.2-1,2.2-2.2,2.2C453.5,30.6,452.5,29.6,452.5,28.4
		z M453.3,34.7h2.8V61h-2.8V34.7z"/>
	<path class="st0" d="M475.5,34.1c4.6,0,7.2,1.8,9.3,4.5l-2,1.7c-1.9-2.6-4.3-3.6-7.2-3.6c-6.1,0-9.9,4.9-9.9,11.2
		s3.8,11.3,9.9,11.3c2.9,0,5.3-1.1,7.2-3.7l2,1.7c-2.1,2.7-4.7,4.5-9.3,4.5c-7.7,0-12.8-6.1-12.8-13.8S467.7,34.1,475.5,34.1z"/>
	<path class="st0" d="M489.7,28.4c0-1.2,1-2.1,2.2-2.1c1.2,0,2.2,0.9,2.2,2.1c0,1.2-1,2.2-2.2,2.2C490.7,30.6,489.7,29.6,489.7,28.4
		z M490.4,34.7h2.8V61h-2.8V34.7z"/>
	<path class="st0" d="M520.9,56.8c-1.8,2.7-5.2,4.8-9.1,4.8c-7,0-11.7-5.3-11.7-13.8c0-8.3,4.8-13.8,11.7-13.8c3.8,0,7,1.9,9.1,4.9
		V24.7h2.9V61h-2.9V56.8z M520.9,41.4c-1.5-2.6-4.9-4.8-8.6-4.8c-5.8,0-9.2,4.9-9.2,11.3s3.4,11.2,9.2,11.2c3.7,0,7.1-2.2,8.6-4.7
		V41.4z"/>
	<path class="st0" d="M548.6,57.9c-2.3,2.6-5.3,3.8-8.9,3.8c-4.5,0-9.2-3.1-9.2-8.8c0-5.7,4.6-8.7,9.2-8.7c3.6,0,6.6,1.2,8.9,3.8
		v-5.3c0-3.9-3.2-6-7.1-6c-3.3,0-5.8,1.1-8.2,3.9l-1.6-2c2.7-2.9,5.8-4.4,10.1-4.4c5.3,0,9.6,2.6,9.6,8.4V61h-2.8V57.9z M548.6,50.1
		c-1.8-2.4-4.8-3.6-7.9-3.6c-4.3,0-7.2,2.8-7.2,6.5c0,3.7,2.8,6.5,7.2,6.5c3.2,0,6.1-1.2,7.9-3.6V50.1z"/>
	<path class="st0" d="M579.1,56.8c-1.8,2.7-5.2,4.8-9.1,4.8c-7,0-11.7-5.3-11.7-13.8c0-8.3,4.8-13.8,11.7-13.8c3.8,0,7,1.9,9.1,4.9
		V24.7h2.9V61h-2.9V56.8z M579.1,41.4c-1.5-2.6-4.9-4.8-8.6-4.8c-5.8,0-9.2,4.9-9.2,11.3s3.4,11.2,9.2,11.2c3.7,0,7.1-2.2,8.6-4.7
		V41.4z"/>
	<path class="st0" d="M299,16.5c-2-2.5-5-3.7-9.1-3.7c-4,0-7.1,1.2-9.1,3.7c-2,2.5-3,5.4-3,8.8c0,3.5,1,6.4,3,8.9
		c2,2.5,5,3.7,9.1,3.7c4.1,0,7.1-1.2,9.1-3.7c2-2.5,3-5.4,3-8.9C302,21.9,301,19,299,16.5z M294.1,30.8c-1,1.3-2.3,1.9-4.2,1.9
		c-1.8,0-3.2-0.6-4.2-1.9c-1-1.3-1.5-3.1-1.5-5.5c0-2.4,0.5-4.2,1.5-5.5c1-1.3,2.4-1.9,4.2-1.9c1.8,0,3.2,0.6,4.2,1.9
		c1,1.3,1.4,3.1,1.4,5.5C295.5,27.7,295,29.5,294.1,30.8z"/>
	<path class="st0" d="M248.2,14.4c-2-1-4.3-1.5-6.9-1.5c-4,0-6.8,1-8.5,3.1c-1,1.3-1.6,3-1.7,5.1h6c0.1-0.9,0.4-1.6,0.9-2.2
		c0.6-0.7,1.7-1.1,3.1-1.1c1.3,0,2.3,0.2,3,0.6c0.7,0.4,1,1,1,2c0,0.8-0.4,1.4-1.3,1.8c-0.5,0.2-1.3,0.4-2.5,0.5l-2.1,0.3
		c-2.4,0.3-4.2,0.8-5.5,1.5c-2.3,1.3-3.4,3.4-3.4,6.3c0,2.2,0.7,4,2.1,5.2c1.4,1.2,3.2,1.7,5.3,1.8c13.5,0.6,13.3-7.1,13.5-8.7v-8.9
		C251.2,17.4,250.2,15.4,248.2,14.4z M245,27.9c0,2.1-0.6,3.5-1.8,4.3c-1.1,0.8-2.4,1.2-3.7,1.2c-0.9,0-1.6-0.2-2.2-0.7
		c-0.6-0.5-0.9-1.2-0.9-2.3c0-1.2,0.5-2.1,1.5-2.6c0.6-0.3,1.5-0.6,2.8-0.8l1.4-0.3c0.7-0.1,1.3-0.3,1.7-0.4
		c0.4-0.1,0.8-0.3,1.2-0.6V27.9z"/>
	<path class="st0" d="M217.4,18.2c1.5,0,2.7,0.5,3.4,1.4c0.5,0.7,0.8,1.5,0.9,2.4h6.7c-0.4-3.4-1.5-5.7-3.5-7c-2-1.3-4.5-2-7.7-2
		c-3.7,0-6.5,1.1-8.6,3.4c-2.1,2.3-3.1,5.4-3.1,9.4c0,3.6,0.9,6.5,2.8,8.7c1.9,2.2,4.8,3.4,8.8,3.4c4,0,7-1.3,9.1-4
		c1.3-1.7,2-3.4,2.1-5.3h-6.6c-0.1,1.2-0.5,2.3-1.2,3c-0.6,0.8-1.7,1.2-3.2,1.2c-2.1,0-3.6-1-4.4-2.9c-0.4-1-0.6-2.4-0.6-4.2
		c0-1.8,0.2-3.3,0.6-4.4C213.7,19.2,215.2,18.2,217.4,18.2z"/>
	<path class="st0" d="M203.7,13c-13.7,0-12.9,12.1-12.9,12.1v12.3h6.2V25.8c0-1.9,0.2-3.3,0.7-4.2c0.9-1.6,2.5-2.4,5-2.4
		c0.2,0,0.4,0,0.7,0c0.3,0,0.6,0,1,0.1V13c-0.3,0-0.5,0-0.5,0C203.9,13,203.8,13,203.7,13z"/>
	<path class="st0" d="M180.9,30.9c-0.3,0.4-0.5,0.7-0.8,0.9c-0.9,0.7-2.1,0.9-3.5,0.9c-1.3,0-2.4-0.2-3.3-0.8
		c-1.5-1-2.4-2.6-2.5-4.9h17.2c0-2,0-3.6-0.2-4.7c-0.3-1.8-0.9-3.5-1.9-4.9c-1.1-1.6-2.4-2.7-4.1-3.5c-1.6-0.7-3.5-1.1-5.5-1.1
		c-3.5,0-6.3,1.1-8.4,3.3c-2.2,2.2-3.3,5.3-3.3,9.4c0,4.4,1.2,7.5,3.6,9.4c2.4,1.9,5.2,2.9,8.3,2.9c3.8,0,6.8-1.1,8.9-3.4
		c1.1-1.2,1.9-2.4,2.2-3.6H180.9z M172.6,19.4c0.9-0.9,2.1-1.3,3.7-1.3c1.5,0,2.7,0.4,3.7,1.3c1,0.8,1.5,2.1,1.6,3.7h-10.6
		C171.1,21.5,171.7,20.3,172.6,19.4z"/>
	<g>
		<path class="st0" d="M162.1,37.4h-5.7V23.1c0-1.3-0.4-4.4-4.2-4.4c-2.5,0-4.3,1.8-4.3,4.4v14.3h-5.7V23.1c0-1.3-0.4-4.4-4.1-4.4
			c-2.5,0-4.3,1.8-4.3,4.4v14.3h-5.7V23.2c0-5.9,3.9-10.3,10-10.3c3,0,5.5,1.3,7,3.3c1.7-2,4.2-3.3,7-3.3c6.2,0,9.8,4.3,9.8,10.3
			V37.4z"/>
	</g>
	<path class="st0" d="M276.1,5.5c0,0-6.2-0.7-6.2,4.4l0,6.6c-0.7-1.1-1.6-2-2.7-2.6c-1.1-0.6-2.4-0.9-3.8-0.9
		c-3.1,0-5.6,1.2-7.4,3.5c-1.9,2.3-2.8,5.6-2.8,9.7c0,3.5,0.9,6.3,2.8,8.6c1.9,2.2,5.6,3.2,8.8,3.2c11.4,0,11.3-9.8,11.3-9.8
		L276.1,5.5z M268.6,30.8c-0.9,1.3-2.2,1.9-4,1.9c-1.7,0-3-0.7-3.9-2c-0.9-1.3-1.3-3.2-1.3-5.4c0-2,0.4-3.7,1.3-5.1
		c0.8-1.4,2.2-2,4-2c1.2,0,2.2,0.4,3.1,1.1c1.5,1.2,2.2,3.5,2.2,6.3C270,27.9,269.5,29.6,268.6,30.8z"/>
	<path class="st0" d="M205,67c-0.3,0.4-0.5,0.7-0.8,0.9c-0.9,0.7-2.1,1-3.5,1c-1.3,0-2.3-0.2-3.3-0.8c-1.5-0.9-2.4-2.6-2.4-4.9h17
		c0-2,0-3.6-0.2-4.6c-0.3-1.8-0.9-3.4-1.9-4.8c-1.1-1.6-2.4-2.7-4-3.5c-1.6-0.7-3.5-1.1-5.5-1.1c-3.4,0-6.2,1.1-8.4,3.2
		c-2.1,2.2-3.2,5.3-3.2,9.3c0,4.3,1.2,7.4,3.6,9.4c2.4,1.9,5.1,2.9,8.2,2.9c3.8,0,6.7-1.1,8.8-3.4c1.1-1.2,1.8-2.4,2.1-3.5H205z
		 M196.7,55.6c0.9-0.9,2.1-1.3,3.6-1.3c1.4,0,2.6,0.4,3.6,1.3c1,0.8,1.5,2.1,1.6,3.7h-10.5C195.3,57.6,195.8,56.4,196.7,55.6z"/>
	<path class="st0" d="M162.3,49.2c-1.4,0-2.7,0.3-3.8,0.9c-1.1,0.6-2,1.5-2.7,2.6V41.6c0,0-6.2-0.6-6.2,4.5c0,4.3,0,18.1,0,18.1
		s-0.1,9.8,11.3,9.8c3.3,0,7-1,8.8-3.2c1.9-2.2,2.8-5.1,2.8-8.6c0-4-0.9-7.2-2.8-9.5C167.9,50.4,165.4,49.2,162.3,49.2z M164.9,67
		c-0.9,1.3-2.2,2-3.9,2c-1.7,0-3.1-0.6-4-1.9c-0.9-1.3-1.4-3-1.4-5c0-2.9,0.7-4.9,2.2-6.2c0.9-0.7,1.9-1.1,3.1-1.1
		c1.8,0,3.1,0.7,4,2c0.8,1.4,1.3,3.1,1.3,5.1C166.2,63.9,165.7,65.6,164.9,67z"/>
	<path class="st0" d="M187.6,49.2c-0.1,0-0.2,0-0.3,0c-13.7,0-12.9,12.1-12.9,12.1v12.1h6.2V62.1c0-1.9,0.2-3.3,0.7-4.2
		c0.8-1.6,2.5-2.4,5-2.4c0.2,0,0.4,0,0.7,0c0.3,0,0.7,0,1,0.1v-6.3C187.8,49.2,187.7,49.2,187.6,49.2z"/>
	<path class="st0" d="M128.2,46.1c0,4.7,0,27.3,0,27.3h5.8V41.6C134,41.6,128.2,41.4,128.2,46.1z"/>
	<g>
		<rect x="138.7" y="41.6" class="st0" width="6.2" height="6.2"/>
		<rect x="138.7" y="49.8" class="st0" width="6.2" height="23.6"/>
	</g>
	<path class="st0" d="M111.2,38.9C111.2,19.1,86.5,3,56.1,3C25.7,3,1,19.1,1,38.9c0,0.5,0,1.9,0,2.1c0,21,21.6,38,55.1,38
		c33.7,0,55.1-17,55.1-38V38.9z"/>
	<path class="st1" d="M109.1,38.8c0,18.6-23.7,33.8-53,33.8c-29.3,0-53-15.1-53-33.8c0-18.6,23.7-33.8,53-33.8
		C85.4,5.1,109.1,20.2,109.1,38.8"/>
	<path class="st2" d="M3.8,50.4c2.6,5.5,5.1,8.1,5.1,8.1c1.1-2.2,1.2-3.3,2.4-3.8c1.8-0.7,2.5,0.3,8.3,1.1
		c9.3,1.2,13.3,1.6,29.4,0.2c11.7-1,3.8-13.6,1.2-20.3c-2.7-6.7-5.5-12.7-7-16.1c-1.6-3.4-3.5-6.8-6.2-9.6c-2.7-2.9-7.3-7.5-8.6-8.6
		C27,0.2,24.7,2,23.8,2.8c-0.9,0.7-6,3-4.3,5.3c0,0,0.8,1.4,1.5,1.8c0.7,0.5-3.8-1.4-3.8,1.3c0,2.6,4.1,2.2,5.2,2.7
		c1.2,0.5,2.3,0.5,3.6,1.2c1.3,0.7,3.4,1.5,5,1.5c1.7-0.1,2.3-0.9,3.1,1.3c0.9,2.2,3,7.2,2.6,12.2c-0.4,5,0.1,11.8,1.1,14.3
		c0,0-19.5-9.2-35.4-6.1C2.4,38.2,1.8,46.1,3.8,50.4"/>
	<path class="st0" d="M9.1,60.1l-0.9-1c-0.1-0.1-2.7-2.8-5.3-8.3v0c-2.1-4.4-1.5-12.3-1.5-12.6l0.1-0.7l0.7-0.1
		c13.3-2.6,28.8,3.1,34.1,5.3c-0.7-3.4-0.8-8.8-0.6-12.7c0.3-4.5-1.4-8.9-2.4-11.3l-0.2-0.5c-0.3-0.7-0.5-0.9-0.5-0.9
		c-0.1,0-0.3,0-0.5,0.1c-0.3,0.1-0.7,0.1-1.2,0.1c-2.2,0.1-4.8-1.2-5.5-1.6c-0.6-0.3-1.2-0.5-1.9-0.6c-0.5-0.1-1.1-0.3-1.7-0.5
		c-0.2-0.1-0.7-0.1-1.1-0.2c-1.6-0.2-4.7-0.6-4.7-3.4c0-1,0.4-1.5,0.8-1.8c0.5-0.4,1.1-0.6,1.8-0.6c0-0.1-0.1-0.1-0.1-0.2
		c-0.4-0.6-0.6-1.3-0.4-1.9c0.4-1.8,2.6-3.2,4.1-4.1c0.3-0.2,0.7-0.4,0.8-0.5c3-2.6,4.8-2.2,5.7-1.5c1.4,1.1,6.1,5.8,8.7,8.7
		c2.4,2.6,4.4,5.7,6.4,9.9l0.3,0.6c1.6,3.4,4.3,9.1,6.8,15.5c0.4,1,0.9,2.1,1.4,3.3c2.3,5,5.1,11.2,2.8,15.1
		c-1.1,1.9-3.2,2.9-6.3,3.2c-16.2,1.4-20.3,1.1-29.6-0.2c-2.5-0.3-4.1-0.7-5.2-0.9c-1.5-0.3-1.9-0.4-2.6-0.2
		c-0.4,0.2-0.6,0.4-1.1,1.6c-0.2,0.5-0.5,1-0.8,1.7L9.1,60.1z M4.6,49.9c1.5,3.3,3.1,5.5,4,6.7c0-0.1,0.1-0.2,0.1-0.3
		c0.5-1.2,1-2.2,2.2-2.6c1.3-0.5,2.2-0.3,3.7,0.1c1.1,0.3,2.6,0.6,5,0.9c9.2,1.2,13.2,1.6,29.2,0.2c2.5-0.2,4-1,4.8-2.3
		c1.7-3-0.9-8.7-2.9-13.3c-0.6-1.2-1.1-2.4-1.5-3.4c-2.5-6.3-5.2-12-6.7-15.4L42.2,20c-1.8-4-3.8-7-6-9.4c-2.8-3-7.3-7.5-8.5-8.5
		c-0.5-0.4-1.8,0.2-3.2,1.4c-0.2,0.2-0.6,0.4-1.1,0.7c-1,0.6-3,1.9-3.2,2.8c0,0.1,0,0.3,0.1,0.5l0.1,0.1c0.3,0.5,0.8,1.3,1.2,1.5
		c0.5,0.4,0.5,0.9,0.4,1.2c-0.3,0.8-1.1,0.6-1.5,0.5c-1.2-0.2-1.9-0.2-2.2,0c-0.1,0-0.1,0.2-0.1,0.3c0,0.8,0.7,1.2,3,1.4
		c0.7,0.1,1.2,0.2,1.7,0.3c0.4,0.2,0.9,0.3,1.4,0.4c0.7,0.2,1.5,0.4,2.3,0.8c1.3,0.7,3.2,1.4,4.5,1.3c0.3,0,0.6-0.1,0.9-0.1
		c1.2-0.2,2.3-0.2,3.2,2l0.2,0.5c0.9,2.4,2.9,7.2,2.5,12.2c-0.4,5,0.1,11.7,1,13.9l0.9,2.3l-2.2-1c-0.2-0.1-18.8-8.7-34.1-6.1
		C3.2,41,3.1,46.7,4.6,49.9L4.6,49.9z"/>
	<path class="st0" d="M19.1,10.7c0,0,1.7,0.1,3.2,0.8c0.9,0.5,1.4,0.9,2.3,0.6c0.1-0.1,0.3-0.1,0.4-0.2c2.1-0.8,2.1-0.8,3.6,0.9
		c1.2,1.3,2.2,1.6,3.1,1.1c-1.2-1.2-2.5-2.3-3.6-3.6c-1.4-1.6-1.4-2-0.2-3.7c-0.1-0.1-0.1-0.2-0.2-0.2c-0.4,0.3-0.8,0.6-1.2,0.9
		C26.3,7.5,26,7.7,25.8,8C25.5,7.6,25.2,7.4,25,7c-0.2-0.4-0.2-0.9-0.5-1.4c-0.1,0.8-0.1,1.5-0.2,2.3c-0.3,0-0.7,0.1-1.2,0.1
		c0.4,0.2,0.7,0.3,1.1,0.5c0,0.2-0.1,0.5-0.1,0.8c1.3-0.9,2-1.3,2.5,0.8c-0.9,0.3-1.7,0.4-2.6,0.6c-0.7,0.2-2.6-1.9-3.1-2.4"/>
	<path class="st2" d="M107.6,50.4c-2.6,5.5-5.1,8.1-5.1,8.1c-1.1-2.2-1.2-3.3-2.4-3.8c-1.8-0.7-2.5,0.3-8.3,1.1
		c-9.3,1.2-13.3,1.6-29.4,0.2c-11.7-1-3.8-13.6-1.2-20.3c2.7-6.7,5.5-12.7,7-16.1c1.6-3.4,3.5-6.8,6.2-9.6C77.1,7,81.7,2.4,83,1.3
		c1.3-1.1,3.6,0.7,4.5,1.5c0.9,0.7,6,3,4.3,5.3c0,0-0.8,1.4-1.5,1.8c-0.7,0.5,3.8-1.4,3.8,1.3c0,2.6-4.1,2.2-5.2,2.7
		c-1.2,0.5-2.3,0.5-3.6,1.2c-1.3,0.7-3.4,1.5-5,1.5c-1.7-0.1-2.3-0.9-3.1,1.3c-0.9,2.2-3,7.2-2.6,12.2c0.4,5-0.1,11.8-1.1,14.3
		c0,0,20.7-9.4,36.7-6.3C110.2,38,109.6,46.1,107.6,50.4"/>
	<path class="st0" d="M102.2,60.1l-0.6-1.2c-0.3-0.7-0.6-1.2-0.8-1.7c-0.5-1.2-0.7-1.4-1.1-1.6c-0.7-0.3-1.1-0.2-2.6,0.2
		c-1.1,0.3-2.7,0.6-5.2,0.9c-9.4,1.2-13.4,1.6-29.6,0.2c-3.1-0.3-5.2-1.4-6.3-3.2c-2.3-3.9,0.6-10.1,2.8-15.1
		c0.5-1.2,1.1-2.3,1.4-3.3c2.5-6.3,5.2-12.1,6.8-15.5l0.3-0.6c1.9-4.2,4-7.3,6.4-9.9c2.6-2.8,7.3-7.5,8.7-8.7
		c0.9-0.8,2.7-1.1,5.7,1.5c0.1,0.1,0.5,0.3,0.8,0.5c1.5,0.9,3.8,2.3,4.1,4.1c0.1,0.7,0,1.3-0.4,1.9c0,0-0.1,0.1-0.1,0.2
		c0.6,0,1.3,0.2,1.8,0.6c0.4,0.3,0.8,0.9,0.8,1.8c0,2.8-3,3.2-4.7,3.4c-0.5,0.1-1,0.1-1.1,0.2c-0.6,0.2-1.1,0.4-1.7,0.5
		c-0.6,0.2-1.2,0.3-1.9,0.6c-0.7,0.4-3.3,1.7-5.5,1.6c-0.5,0-0.9-0.1-1.2-0.1c-0.2,0-0.5-0.1-0.6-0.1h0c0,0-0.2,0.1-0.5,0.9
		l-0.2,0.5c-0.9,2.4-2.7,6.8-2.4,11.3c0.3,3.9,0.1,9.3-0.6,12.7c2.1-0.9,6-2.3,10.7-3.6c12-3.3,20.1-2.9,24.7-2l0.9,0.2l-0.1,0.9
		c0,0.3-0.7,8.4-2.7,12.7v0c-2.6,5.5-5.2,8.2-5.3,8.3L102.2,60.1z M98.9,53.5c0.5,0,0.9,0.1,1.5,0.3c1.3,0.5,1.7,1.4,2.2,2.6
		c0,0.1,0.1,0.2,0.1,0.3c0.9-1.2,2.5-3.4,4-6.7v0c1.5-3.2,2.2-9,2.4-11.1c-15.3-2.5-35,6.3-35.2,6.3l-2.2,1l0.9-2.2
		c0.9-2.3,1.4-8.9,1-13.9c-0.4-4.9,1.6-9.8,2.5-12.2l0.2-0.5c0.9-2.2,1.9-2.2,3.2-2c0.3,0,0.6,0.1,0.9,0.1c1.4,0,3.2-0.7,4.5-1.3
		c0.8-0.4,1.6-0.6,2.3-0.8c0.5-0.1,0.9-0.2,1.4-0.4c0.4-0.2,1-0.3,1.7-0.3c2.3-0.3,3-0.6,3-1.4c0-0.2,0-0.3-0.1-0.3
		c-0.3-0.2-1-0.2-2.2,0c-0.4,0.1-1.2,0.2-1.5-0.5c-0.1-0.3-0.1-0.9,0.4-1.2c0.3-0.2,0.9-1.1,1.2-1.5l0.1-0.1
		c0.2-0.2,0.2-0.3,0.1-0.5C91,6.1,89,4.8,88,4.2c-0.5-0.3-0.8-0.5-1.1-0.7c-1.5-1.3-2.8-1.8-3.2-1.4c-1.2,1-5.8,5.5-8.5,8.5
		c-2.3,2.4-4.2,5.4-6,9.4l-0.3,0.6c-1.6,3.4-4.2,9.1-6.7,15.4c-0.4,1-0.9,2.2-1.5,3.4c-2.1,4.6-4.7,10.3-2.9,13.3
		c0.8,1.3,2.3,2,4.8,2.3c16,1.4,20,1.1,29.2-0.2c2.4-0.3,3.9-0.7,5-0.9C97.5,53.6,98.2,53.5,98.9,53.5"/>
	<path class="st0" d="M92.2,10.7c0,0-1.7,0.1-3.2,0.8c-0.9,0.5-1.4,0.9-2.3,0.6c-0.1-0.1-0.3-0.1-0.4-0.2c-2.1-0.8-2.1-0.8-3.6,0.9
		c-1.2,1.3-2.2,1.6-3.1,1.1c1.2-1.2,2.5-2.3,3.6-3.6c1.4-1.6,1.4-2,0.2-3.7c0.1-0.1,0.1-0.2,0.2-0.2C84,6.7,84.4,7,84.8,7.3
		c0.3,0.2,0.5,0.4,0.7,0.7c0.3-0.3,0.6-0.6,0.8-0.9c0.2-0.4,0.2-0.9,0.5-1.4C86.8,6.4,86.9,7.1,87,8c0.3,0,0.7,0.1,1.2,0.1
		c-0.4,0.2-0.7,0.3-1.1,0.5c0,0.2,0.1,0.5,0.1,0.8c-1.3-0.9-2-1.3-2.5,0.8c0.9,0.3,1.7,0.4,2.6,0.6c0.7,0.2,2.6-1.9,3.1-2.4"/>
	<path class="st0" d="M101.8,21.8c4.6,5,7.3,10.8,7.3,17.1c0,18.6-23.7,33.8-53,33.8c-29.3,0-53-15.1-53-33.8c0-3.9,1.1-7.7,3-11.2
		l-2.4,0.2C1.9,31.3,1,35,1,38.9c0,0.5,0,1.9,0,2.1c0,21,21.6,38,55.1,38c33.7,0,55.1-17,55.1-38v-2.1c0-6.2-2.4-12-6.6-17.1
		L101.8,21.8z"/>
</g>
</svg>
