<?xml version="1.0" encoding="utf-8"?>
<!-- Generator: Adobe Illustrator 21.0.0, SVG Export Plug-In . SVG Version: 6.00 Build 0)  -->
<svg version="1.1" id="Layer_2" xmlns="http://www.w3.org/2000/svg" xmlns:xlink="http://www.w3.org/1999/xlink" x="0px" y="0px"
	 viewBox="0 0 640 80" style="enable-background:new 0 0 640 80;" xml:space="preserve">
<style type="text/css">
	.st0{fill:#283277;}
	.st1{fill:#FFD100;}
	.st2{fill:#FFFFFF;}
</style>
<g>
	<rect x="325.9" y="3.4" class="st0" width="0.9" height="76.6"/>
	<path class="st0" d="M351.7,24.9h13.5c6.9,0,10.9,4.9,10.9,10.6s-4,10.6-10.9,10.6h-10.5v15h-3.1V24.9z M364.9,27.7h-10.1v15.5
		h10.1c4.8,0,8-3.2,8-7.7S369.7,27.7,364.9,27.7z"/>
	<path class="st0" d="M399.6,57.2c-2.2,2.4-5.6,4.5-9.4,4.5c-5.4,0-8.2-2.5-8.2-8.4V34.9h2.8v17.8c0,5.1,2.5,6.5,6.3,6.5
		c3.4,0,6.8-2,8.5-4.3V34.9h2.8v26.2h-2.8V57.2z"/>
	<path class="st0" d="M410.6,24.9h2.8v14.2c2.1-3,5.4-4.9,9.1-4.9c7,0,11.7,5.5,11.7,13.8c0,8.4-4.8,13.7-11.7,13.7
		c-3.9,0-7.3-2.1-9.1-4.8v4.2h-2.8V24.9z M422.1,59.2c5.9,0,9.2-4.8,9.2-11.2s-3.3-11.2-9.2-11.2c-3.6,0-7.1,2.3-8.6,4.8v13
		C415,57,418.4,59.2,422.1,59.2z"/>
	<path class="st0" d="M441.2,24.9h2.8v36.1h-2.8V24.9z"/>
	<path class="st0" d="M451.4,28.6c0-1.2,1-2.1,2.2-2.1c1.2,0,2.2,0.9,2.2,2.1c0,1.2-1,2.2-2.2,2.2C452.4,30.8,451.4,29.8,451.4,28.6
		z M452.2,34.9h2.8v26.2h-2.8V34.9z"/>
	<path class="st0" d="M474.3,34.2c4.6,0,7.2,1.8,9.3,4.4l-2,1.7c-1.9-2.6-4.3-3.6-7.2-3.6c-6.1,0-9.9,4.9-9.9,11.2
		s3.7,11.2,9.9,11.2c2.9,0,5.3-1.1,7.2-3.7l2,1.7c-2.1,2.7-4.7,4.5-9.3,4.5c-7.7,0-12.7-6.1-12.7-13.8S466.6,34.2,474.3,34.2z"/>
	<path class="st0" d="M488.5,28.6c0-1.2,1-2.1,2.2-2.1c1.2,0,2.2,0.9,2.2,2.1c0,1.2-1,2.2-2.2,2.2C489.5,30.8,488.5,29.8,488.5,28.6
		z M489.2,34.9h2.8v26.2h-2.8V34.9z"/>
	<path class="st0" d="M519.6,56.9c-1.8,2.7-5.2,4.8-9.1,4.8c-6.9,0-11.7-5.3-11.7-13.7c0-8.3,4.8-13.8,11.7-13.8
		c3.7,0,7,1.9,9.1,4.9V24.9h2.9v36.1h-2.9V56.9z M519.6,41.5c-1.5-2.5-4.9-4.8-8.6-4.8c-5.8,0-9.2,4.9-9.2,11.2s3.4,11.2,9.2,11.2
		c3.7,0,7.1-2.2,8.6-4.7V41.5z"/>
	<path class="st0" d="M547.2,58c-2.3,2.5-5.3,3.7-8.9,3.7c-4.5,0-9.2-3.1-9.2-8.7c0-5.7,4.6-8.7,9.2-8.7c3.6,0,6.6,1.2,8.9,3.7v-5.3
		c0-3.9-3.1-6-7-6c-3.3,0-5.8,1.1-8.2,3.8l-1.6-2c2.7-2.9,5.7-4.4,10.1-4.4c5.3,0,9.5,2.5,9.5,8.4v18.4h-2.8V58z M547.2,50.2
		c-1.8-2.4-4.8-3.6-7.9-3.6c-4.3,0-7.2,2.8-7.2,6.5c0,3.7,2.8,6.4,7.2,6.4c3.1,0,6.1-1.2,7.9-3.6V50.2z"/>
	<path class="st0" d="M577.6,56.9c-1.8,2.7-5.2,4.8-9.1,4.8c-6.9,0-11.7-5.3-11.7-13.7c0-8.3,4.8-13.8,11.7-13.8
		c3.7,0,7,1.9,9.1,4.9V24.9h2.9v36.1h-2.9V56.9z M577.6,41.5c-1.5-2.5-4.9-4.8-8.6-4.8c-5.8,0-9.2,4.9-9.2,11.2s3.4,11.2,9.2,11.2
		c3.7,0,7.1-2.2,8.6-4.7V41.5z"/>
	<path class="st0" d="M599.9,34.2c8,0,12.4,6.3,12.4,13.9v0.8h-21.9c0.3,5.7,4.1,10.4,10.2,10.4c3.3,0,6.3-1.2,8.6-3.6l1.5,1.8
		c-2.6,2.7-5.9,4.2-10.2,4.2c-7.6,0-13.1-5.7-13.1-13.8C587.2,40.3,592.6,34.2,599.9,34.2z M590.3,46.6h19c-0.1-4.4-3-10-9.5-10
		C593.6,36.7,590.5,42.1,590.3,46.6z"/>
	<path class="st0" d="M112.1,39.2C112.1,19.2,87.2,3,56.5,3C25.9,3,1,19.2,1,39.2c0,0.5,0,1.9,0,2.1c0,21.1,21.7,38.3,55.5,38.3
		c34,0,55.5-17.1,55.5-38.3V39.2z"/>
	<path class="st1" d="M109.9,39.2c0,18.8-23.9,34-53.4,34c-29.5,0-53.4-15.2-53.4-34c0-18.8,23.9-34,53.4-34
		C86,5.1,109.9,20.4,109.9,39.2"/>
	<path class="st2" d="M3.8,50.8c2.6,5.5,5.1,8.1,5.1,8.1c1.1-2.2,1.2-3.3,2.5-3.8c1.8-0.7,2.5,0.3,8.4,1.1
		c9.3,1.2,13.4,1.6,29.6,0.2c11.8-1,3.9-13.7,1.2-20.4c-2.7-6.8-5.5-12.8-7.1-16.2c-1.6-3.4-3.6-6.8-6.2-9.7
		c-2.7-2.9-7.3-7.6-8.7-8.7c-1.3-1.1-3.7,0.7-4.5,1.5c-0.9,0.7-6,3.1-4.3,5.3c0,0,0.8,1.4,1.5,1.9c0.7,0.5-3.8-1.4-3.8,1.3
		c0,2.6,4.1,2.2,5.3,2.7c1.2,0.5,2.3,0.5,3.6,1.2c1.3,0.7,3.4,1.5,5.1,1.5c1.7-0.1,2.3-0.9,3.1,1.3c0.9,2.2,3,7.2,2.6,12.3
		c-0.4,5.1,0.1,11.9,1.1,14.5c0,0-19.7-9.2-35.7-6.1C2.4,38.5,1.8,46.5,3.8,50.8"/>
	<path class="st0" d="M9.2,60.5l-0.9-1c-0.1-0.1-2.7-2.8-5.3-8.4v0c-2.1-4.4-1.5-12.4-1.5-12.8l0.1-0.7l0.7-0.1
		c13.4-2.6,29.1,3.1,34.4,5.4c-0.7-3.4-0.9-8.9-0.6-12.8c0.3-4.5-1.4-9-2.4-11.4l-0.2-0.5c-0.3-0.8-0.5-0.9-0.5-0.9
		c-0.1,0-0.3,0-0.5,0.1c-0.3,0.1-0.7,0.1-1.2,0.1c-2.2,0.1-4.8-1.2-5.6-1.6c-0.6-0.3-1.2-0.5-1.9-0.6c-0.5-0.1-1.1-0.3-1.7-0.5
		c-0.2-0.1-0.7-0.1-1.2-0.2c-1.6-0.2-4.7-0.6-4.7-3.4c0-1,0.4-1.5,0.8-1.8c0.5-0.4,1.1-0.6,1.8-0.6c0-0.1-0.1-0.1-0.1-0.2
		c-0.4-0.6-0.6-1.3-0.4-2c0.4-1.8,2.6-3.2,4.1-4.1c0.3-0.2,0.7-0.4,0.8-0.5c3.1-2.6,4.8-2.3,5.8-1.5c1.4,1.1,6.1,5.9,8.8,8.7
		c2.4,2.6,4.5,5.8,6.4,10l0.3,0.6c1.6,3.4,4.3,9.2,6.8,15.6c0.4,1,0.9,2.1,1.5,3.3c2.3,5,5.1,11.3,2.9,15.2c-1.1,1.9-3.2,3-6.3,3.2
		c-16.3,1.5-20.4,1.1-29.9-0.2c-2.5-0.3-4.1-0.7-5.2-1c-1.5-0.4-1.9-0.4-2.7-0.2c-0.4,0.2-0.6,0.4-1.1,1.6c-0.2,0.5-0.5,1-0.8,1.7
		L9.2,60.5z M4.7,50.3c1.5,3.3,3.1,5.5,4,6.7c0-0.1,0.1-0.2,0.1-0.3c0.5-1.2,1-2.2,2.2-2.7c1.3-0.5,2.2-0.3,3.8,0.1
		c1.1,0.3,2.6,0.6,5.1,0.9c9.3,1.2,13.3,1.6,29.4,0.2c2.5-0.2,4.1-1,4.8-2.3c1.8-3-0.9-8.8-3-13.4c-0.6-1.2-1.1-2.4-1.5-3.4
		c-2.5-6.3-5.2-12.1-6.8-15.5l-0.3-0.6c-1.9-4-3.8-7-6.1-9.5c-2.8-3-7.4-7.6-8.6-8.6c-0.5-0.4-1.8,0.2-3.3,1.5
		C24.4,3.7,24,4,23.5,4.3c-1,0.6-3.1,1.9-3.2,2.8c0,0.1,0,0.3,0.1,0.5l0.1,0.1c0.3,0.5,0.8,1.3,1.2,1.5c0.5,0.4,0.6,0.9,0.4,1.3
		C21.7,11.2,21,11,20.5,11c-1.2-0.2-1.9-0.2-2.2,0c-0.1,0-0.1,0.2-0.1,0.3c0,0.8,0.7,1.2,3,1.5c0.7,0.1,1.2,0.2,1.7,0.3
		c0.4,0.2,0.9,0.3,1.4,0.4c0.7,0.2,1.5,0.4,2.3,0.8c1.3,0.7,3.2,1.4,4.6,1.4c0.3,0,0.6-0.1,0.9-0.1c1.2-0.2,2.3-0.2,3.2,2l0.2,0.5
		c0.9,2.4,2.9,7.3,2.5,12.3c-0.4,5.1,0.1,11.7,1,14l0.9,2.3l-2.2-1c-0.2-0.1-18.9-8.8-34.4-6.2C3.2,41.4,3.1,47.1,4.7,50.3L4.7,50.3
		z"/>
	<path class="st0" d="M19.2,10.8c0,0,1.7,0.1,3.2,0.8c0.9,0.5,1.4,1,2.3,0.6c0.1-0.1,0.3-0.1,0.4-0.2c2.1-0.8,2.1-0.8,3.6,0.9
		c1.2,1.4,2.2,1.6,3.1,1.1c-1.2-1.2-2.5-2.3-3.7-3.6c-1.4-1.6-1.4-2-0.2-3.7c-0.1-0.1-0.1-0.2-0.2-0.2c-0.4,0.3-0.8,0.6-1.2,0.9
		C26.5,7.6,26.2,7.8,26,8c-0.3-0.3-0.6-0.6-0.8-1c-0.2-0.4-0.2-0.9-0.5-1.4c-0.1,0.8-0.1,1.5-0.2,2.4c-0.3,0-0.7,0.1-1.2,0.1
		c0.5,0.2,0.7,0.3,1.1,0.5c0,0.2-0.1,0.5-0.1,0.8c1.3-0.9,2-1.3,2.5,0.8c-0.9,0.3-1.7,0.4-2.7,0.6C23.4,11,21.5,9,21,8.5"/>
	<path class="st2" d="M108.4,50.8c-2.6,5.5-5.1,8.1-5.1,8.1c-1.1-2.2-1.2-3.3-2.5-3.8c-1.8-0.7-2.5,0.3-8.4,1.1
		c-9.3,1.2-13.4,1.6-29.6,0.2c-11.8-1-3.9-13.7-1.2-20.4c2.7-6.8,5.5-12.8,7.1-16.2c1.6-3.4,3.6-6.8,6.2-9.7
		c2.7-2.9,7.3-7.6,8.7-8.7c1.3-1.1,3.7,0.7,4.5,1.5c0.9,0.7,6,3.1,4.3,5.3c0,0-0.8,1.4-1.5,1.9c-0.7,0.5,3.8-1.4,3.8,1.3
		c0,2.6-4.1,2.2-5.3,2.7c-1.2,0.5-2.3,0.5-3.6,1.2c-1.3,0.7-3.4,1.5-5.1,1.5c-1.7-0.1-2.3-0.9-3.1,1.3c-0.9,2.2-3,7.2-2.6,12.3
		c0.4,5.1-0.1,11.9-1.1,14.5c0,0,20.9-9.4,36.9-6.3C111.1,38.3,110.4,46.5,108.4,50.8"/>
	<path class="st0" d="M103,60.5l-0.6-1.2c-0.3-0.7-0.6-1.2-0.8-1.7c-0.5-1.2-0.7-1.5-1.1-1.6c-0.7-0.3-1.1-0.2-2.7,0.2
		c-1.1,0.3-2.7,0.6-5.2,1c-9.4,1.3-13.5,1.6-29.9,0.2c-3.1-0.3-5.2-1.4-6.3-3.2c-2.3-3.9,0.6-10.2,2.9-15.2c0.5-1.2,1.1-2.3,1.5-3.3
		c2.5-6.4,5.2-12.2,6.8-15.6l0.3-0.6c1.9-4.2,4-7.4,6.4-10c2.7-2.8,7.4-7.6,8.8-8.7c0.9-0.8,2.7-1.1,5.8,1.5
		c0.1,0.1,0.5,0.3,0.8,0.5c1.5,0.9,3.8,2.3,4.1,4.1c0.1,0.7,0,1.4-0.4,2c0,0-0.1,0.1-0.1,0.2c0.6,0,1.3,0.2,1.8,0.6
		c0.4,0.3,0.8,0.9,0.8,1.8c0,2.8-3.1,3.2-4.7,3.4c-0.5,0.1-1,0.1-1.2,0.2c-0.6,0.2-1.1,0.4-1.7,0.5c-0.6,0.2-1.2,0.3-1.9,0.6
		c-0.7,0.4-3.4,1.7-5.6,1.6c-0.5,0-0.9-0.1-1.2-0.1c-0.2,0-0.5-0.1-0.6-0.1h0c0,0-0.2,0.1-0.5,0.9l-0.2,0.5
		c-0.9,2.4-2.7,6.9-2.4,11.4c0.3,4,0.1,9.4-0.6,12.8c2.2-0.9,6-2.3,10.7-3.6c12.1-3.3,20.3-2.9,24.9-2l0.9,0.2l-0.1,0.9
		c0,0.3-0.7,8.4-2.7,12.8v0c-2.6,5.6-5.2,8.3-5.3,8.4L103,60.5z M99.7,53.9c0.5,0,1,0.1,1.5,0.3c1.3,0.5,1.7,1.4,2.2,2.7
		c0,0.1,0.1,0.2,0.1,0.3c0.9-1.2,2.5-3.5,4-6.7v0c1.5-3.2,2.2-9,2.5-11.2c-15.4-2.5-35.3,6.3-35.5,6.4l-2.2,1l0.9-2.2
		c0.9-2.3,1.4-9,1-14c-0.4-5,1.6-9.9,2.5-12.3l0.2-0.5c0.9-2.2,2-2.2,3.2-2c0.3,0.1,0.6,0.1,0.9,0.1c1.4,0,3.3-0.7,4.6-1.4
		c0.8-0.4,1.6-0.6,2.3-0.8c0.5-0.1,0.9-0.2,1.4-0.4c0.4-0.2,1-0.3,1.7-0.3c2.3-0.3,3-0.6,3-1.5c0-0.2,0-0.3-0.1-0.3
		c-0.3-0.2-1-0.2-2.2,0c-0.4,0.1-1.2,0.2-1.5-0.5C90,10.1,90,9.6,90.5,9.2c0.3-0.2,0.9-1.1,1.2-1.5l0.1-0.1c0.2-0.2,0.2-0.3,0.1-0.5
		c-0.2-1-2.3-2.2-3.2-2.8c-0.5-0.3-0.8-0.5-1.1-0.7c-1.5-1.3-2.8-1.8-3.3-1.5c-1.2,1-5.8,5.6-8.6,8.6c-2.3,2.5-4.2,5.5-6.1,9.5
		l-0.3,0.6c-1.6,3.4-4.3,9.2-6.8,15.5c-0.4,1-0.9,2.2-1.5,3.4c-2.1,4.6-4.7,10.4-3,13.4c0.8,1.3,2.3,2.1,4.8,2.3
		c16.1,1.4,20.2,1.1,29.4-0.2c2.4-0.3,4-0.7,5.1-0.9C98.3,54.1,99,53.9,99.7,53.9"/>
	<path class="st0" d="M93,10.8c0,0-1.7,0.1-3.2,0.8c-0.9,0.5-1.4,1-2.3,0.6C87.3,12.1,87.2,12,87,12c-2.1-0.8-2.1-0.8-3.6,0.9
		c-1.2,1.4-2.2,1.6-3.1,1.1c1.2-1.2,2.5-2.3,3.7-3.6c1.4-1.6,1.4-2,0.2-3.7c0.1-0.1,0.1-0.2,0.2-0.2c0.4,0.3,0.8,0.6,1.2,0.9
		C85.7,7.6,86,7.8,86.2,8c0.3-0.3,0.6-0.6,0.8-1c0.2-0.4,0.2-0.9,0.5-1.4c0.1,0.8,0.1,1.5,0.2,2.4c0.3,0,0.7,0.1,1.2,0.1
		c-0.5,0.2-0.7,0.3-1.1,0.5c0,0.2,0.1,0.5,0.1,0.8c-1.3-0.9-2-1.3-2.5,0.8c0.9,0.3,1.7,0.4,2.7,0.6c0.7,0.2,2.7-1.9,3.1-2.4"/>
	<path class="st0" d="M102.6,22c4.7,5,7.3,10.9,7.3,17.2c0,18.8-23.9,34-53.4,34c-29.5,0-53.4-15.2-53.4-34c0-4,1.1-7.8,3-11.3
		L3.7,28C2,31.5,1,35.3,1,39.2c0,0.5,0,1.9,0,2.1c0,21.1,21.7,38.3,55.5,38.3c34,0,55.5-17.1,55.5-38.3v-2.1
		c0-6.2-2.4-12.1-6.7-17.2L102.6,22z"/>
	<path class="st0" d="M298.3,16.6c-2-2.5-5-3.7-9.1-3.7c-4.1,0-7.1,1.2-9.1,3.7c-2,2.5-3,5.4-3,8.8c0,3.5,1,6.4,3,8.9
		c2,2.5,5,3.7,9.1,3.7c4.1,0,7.1-1.2,9.1-3.7c2-2.5,3-5.4,3-8.9C301.3,22,300.3,19.1,298.3,16.6z M293.3,30.9
		c-1,1.3-2.3,1.9-4.2,1.9c-1.8,0-3.2-0.6-4.2-1.9c-1-1.3-1.5-3.1-1.5-5.5c0-2.4,0.5-4.2,1.5-5.5c1-1.3,2.4-1.9,4.2-1.9
		c1.8,0,3.2,0.6,4.2,1.9c1,1.3,1.4,3.1,1.4,5.5C294.8,27.8,294.3,29.6,293.3,30.9z"/>
	<path class="st0" d="M247.4,14.5c-2-1-4.3-1.5-6.9-1.5c-4,0-6.8,1-8.5,3.1c-1,1.3-1.6,3-1.7,5.1h6c0.1-0.9,0.4-1.6,0.9-2.2
		c0.6-0.7,1.7-1.1,3.1-1.1c1.3,0,2.3,0.2,3,0.6c0.7,0.4,1,1,1,2c0,0.8-0.4,1.4-1.3,1.8c-0.5,0.2-1.3,0.4-2.5,0.5l-2.1,0.3
		c-2.4,0.3-4.2,0.8-5.5,1.5c-2.3,1.3-3.4,3.4-3.4,6.3c0,2.2,0.7,4,2.1,5.2c1.4,1.2,3.2,1.7,5.3,1.8c13.5,0.6,13.4-7.1,13.5-8.7v-8.9
		C250.4,17.5,249.4,15.5,247.4,14.5z M244.2,28c0,2.1-0.6,3.5-1.8,4.3c-1.1,0.8-2.4,1.2-3.7,1.2c-0.9,0-1.6-0.2-2.2-0.7
		c-0.6-0.5-0.9-1.2-0.9-2.3c0-1.2,0.5-2.1,1.5-2.6c0.6-0.3,1.5-0.6,2.8-0.8l1.4-0.3c0.7-0.1,1.3-0.3,1.7-0.4
		c0.4-0.1,0.8-0.3,1.2-0.6V28z"/>
	<path class="st0" d="M216.6,18.2c1.5,0,2.7,0.5,3.4,1.4c0.5,0.7,0.8,1.5,0.9,2.4h6.7c-0.4-3.4-1.5-5.7-3.5-7c-2-1.3-4.5-2-7.7-2
		c-3.7,0-6.6,1.1-8.6,3.4c-2.1,2.3-3.1,5.4-3.1,9.4c0,3.6,0.9,6.5,2.8,8.8c1.9,2.2,4.8,3.4,8.8,3.4c4,0,7-1.3,9.1-4
		c1.3-1.7,2-3.4,2.1-5.3h-6.6c-0.1,1.2-0.5,2.3-1.2,3c-0.6,0.8-1.7,1.2-3.2,1.2c-2.2,0-3.6-1-4.4-2.9c-0.4-1-0.6-2.4-0.6-4.2
		c0-1.8,0.2-3.3,0.6-4.4C212.9,19.3,214.4,18.2,216.6,18.2z"/>
	<path class="st0" d="M202.9,13C189.2,13,190,25.1,190,25.1v12.3h6.2V25.9c0-1.9,0.2-3.3,0.7-4.2c0.9-1.6,2.5-2.4,5-2.4
		c0.2,0,0.4,0,0.7,0c0.3,0,0.6,0,1,0.1v-6.3c-0.3,0-0.5,0-0.5,0C203.1,13,203,13,202.9,13z"/>
	<path class="st0" d="M180,31c-0.3,0.4-0.5,0.7-0.8,0.9c-0.9,0.7-2.1,0.9-3.5,0.9c-1.3,0-2.4-0.2-3.3-0.8c-1.6-1-2.4-2.6-2.5-4.9
		h17.2c0-2,0-3.6-0.2-4.7c-0.3-1.8-0.9-3.5-1.9-4.9c-1.1-1.6-2.4-2.8-4.1-3.5c-1.6-0.7-3.5-1.1-5.5-1.1c-3.5,0-6.3,1.1-8.4,3.3
		c-2.2,2.2-3.3,5.3-3.3,9.4c0,4.4,1.2,7.5,3.6,9.4c2.4,1.9,5.2,2.9,8.3,2.9c3.8,0,6.8-1.1,8.9-3.4c1.1-1.2,1.9-2.4,2.2-3.6H180z
		 M171.7,19.5c0.9-0.9,2.1-1.3,3.7-1.3c1.5,0,2.7,0.4,3.7,1.3c1,0.8,1.5,2.1,1.6,3.7H170C170.3,21.6,170.8,20.4,171.7,19.5z"/>
	<path class="st0" d="M161.2,37.4h-5.7V23.2c0-1.3-0.4-4.4-4.2-4.4c-2.5,0-4.3,1.8-4.3,4.4v14.3h-5.7V23.2c0-1.3-0.4-4.4-4.1-4.4
		c-2.5,0-4.3,1.8-4.3,4.4v14.3h-5.7V23.3c0-5.9,3.9-10.4,10-10.4c3,0,5.5,1.3,7.1,3.3c1.7-2,4.2-3.3,7.1-3.3c6.2,0,9.8,4.3,9.8,10.4
		V37.4z"/>
	<path class="st0" d="M275.3,5.6c0,0-6.3-0.7-6.3,4.4l0,6.7c-0.7-1.1-1.6-2-2.7-2.6c-1.1-0.6-2.4-0.9-3.8-0.9
		c-3.1,0-5.6,1.2-7.4,3.5c-1.9,2.3-2.8,5.6-2.8,9.7c0,3.5,0.9,6.4,2.8,8.6c1.9,2.2,5.6,3.2,8.9,3.2c11.4,0,11.3-9.8,11.3-9.8
		L275.3,5.6z M267.9,30.9c-0.9,1.3-2.2,1.9-4,1.9c-1.7,0-3.1-0.7-3.9-2c-0.9-1.3-1.3-3.2-1.3-5.4c0-2,0.4-3.7,1.3-5.1
		c0.8-1.4,2.2-2,4-2c1.2,0,2.2,0.4,3.1,1.1c1.5,1.2,2.2,3.5,2.2,6.4C269.2,28,268.8,29.6,267.9,30.9z"/>
	<path class="st0" d="M199.6,67.1c-0.3,0.4-0.5,0.7-0.8,0.9c-0.9,0.7-2.1,1-3.5,1c-1.3,0-2.3-0.2-3.3-0.8c-1.5-0.9-2.3-2.6-2.4-4.9
		h17c0-2,0-3.6-0.2-4.6c-0.3-1.8-0.9-3.4-1.9-4.8c-1.1-1.6-2.4-2.7-4-3.5c-1.6-0.7-3.5-1.1-5.5-1.1c-3.4,0-6.2,1.1-8.3,3.2
		c-2.1,2.2-3.2,5.3-3.2,9.3c0,4.3,1.2,7.4,3.6,9.3c2.4,1.9,5.1,2.9,8.2,2.9c3.8,0,6.7-1.1,8.8-3.4c1.1-1.2,1.8-2.4,2.1-3.5H199.6z
		 M191.3,55.7c0.9-0.9,2.1-1.3,3.6-1.3c1.4,0,2.6,0.4,3.6,1.3c1,0.8,1.5,2.1,1.6,3.7h-10.5C189.9,57.7,190.5,56.5,191.3,55.7z"/>
	<path class="st0" d="M182.2,49.3c-0.1,0-0.2,0-0.3,0c-13.7,0-12.8,12.1-12.8,12.1v12.1h6.2V62.1c0-1.9,0.2-3.3,0.7-4.2
		c0.8-1.6,2.5-2.4,5-2.4c0.2,0,0.4,0,0.7,0c0.3,0,0.6,0,1,0.1v-6.3C182.4,49.3,182.3,49.3,182.2,49.3z"/>
	<path class="st0" d="M127.3,46.1c0,4.7,0,27.3,0,27.3h5.8V41.7C133.1,41.7,127.3,41.4,127.3,46.1z"/>
	<rect x="137.8" y="41.6" class="st0" width="6.2" height="6.2"/>
	<rect x="137.8" y="49.9" class="st0" width="6.2" height="23.5"/>
	<path class="st0" d="M160.7,73.5h-6.3l-8.3-23.6h6.6l4.7,16.6l4.2-14.5c0.5-1.4,1.4-2.1,2.8-2.1h4.6L160.7,73.5z"/>
</g>
</svg>
